<svg xmlns="http://www.w3.org/2000/svg" xmlns:xlink="http://www.w3.org/1999/xlink" width="102" height="41" viewBox="0 0 102 41">
    <defs>
        <filter id="a" width="125.5%" height="175.8%" x="-12.8%" y="-36.4%" filterUnits="objectBoundingBox">
            <feOffset dy="2" in="SourceAlpha" result="shadowOffsetOuter1"/>
            <feGaussianBlur in="shadowOffsetOuter1" result="shadowBlurOuter1" stdDeviation="2"/>
            <feColorMatrix in="shadowBlurOuter1" result="shadowMatrixOuter1" values="0 0 0 0 0.168627451 0 0 0 0 0.192156863 0 0 0 0 0.219607843 0 0 0 0.25 0"/>
            <feMerge>
                <feMergeNode in="shadowMatrixOuter1"/>
                <feMergeNode in="SourceGraphic"/>
            </feMerge>
        </filter>
        <path id="b" d="M0 .05h93.935v17.022H0z"/>
        <path id="d" d="M4.542 5.666C-1.363 9.269-.006 16.003.629 19.02c.576 2.737 2.304 11.166 7.027 13.19 4.154 1.78 11.61-.298 13.618-1.07 2.008-.775 7.91-3.4 9.883-7.088 3.378-6.31-3.173-21.01-8.757-23.451-.847-.371-1.823-.533-2.88-.533-4.814 0-11.308 3.359-14.978 5.597"/>
        <path id="f" d="M4.542 5.666C-1.363 9.269-.006 16.003.629 19.02c.576 2.737 2.304 11.166 7.027 13.19 4.154 1.78 11.61-.298 13.618-1.07 2.008-.775 7.91-3.4 9.883-7.088 3.378-6.31-3.173-21.01-8.757-23.451-.847-.371-1.823-.533-2.88-.533-4.814 0-11.308 3.359-14.978 5.597"/>
        <path id="h" d="M4.542 5.666C-1.363 9.269-.006 16.003.629 19.02c.576 2.737 2.304 11.166 7.027 13.19 4.154 1.78 11.61-.298 13.618-1.07 2.008-.775 7.91-3.4 9.883-7.088 3.378-6.31-3.173-21.01-8.757-23.451-.847-.371-1.823-.533-2.88-.533-4.814 0-11.308 3.359-14.978 5.597"/>
        <path id="j" d="M4.542 5.666C-1.363 9.269-.006 16.003.629 19.02c.576 2.737 2.304 11.166 7.027 13.19 4.154 1.78 11.61-.298 13.618-1.07 2.008-.775 7.91-3.4 9.883-7.088 3.378-6.31-3.173-21.01-8.757-23.451-.847-.371-1.823-.533-2.88-.533-4.814 0-11.308 3.359-14.978 5.597"/>
        <path id="l" d="M4.542 5.666C-1.363 9.269-.006 16.003.629 19.02c.576 2.737 2.304 11.166 7.027 13.19 4.154 1.78 11.61-.298 13.618-1.07 2.008-.775 7.91-3.4 9.883-7.088 3.378-6.31-3.173-21.01-8.757-23.451-.847-.371-1.823-.533-2.88-.533-4.814 0-11.308 3.359-14.978 5.597"/>
        <path id="n" d="M4.542 5.666C-1.363 9.269-.006 16.003.629 19.02c.576 2.737 2.304 11.166 7.027 13.19 4.154 1.78 11.61-.298 13.618-1.07 2.008-.775 7.91-3.4 9.883-7.088 3.378-6.31-3.173-21.01-8.757-23.451-.847-.371-1.823-.533-2.88-.533-4.814 0-11.308 3.359-14.978 5.597"/>
        <path id="p" d="M4.542 5.666C-1.363 9.269-.006 16.003.629 19.02c.576 2.737 2.304 11.166 7.027 13.19 4.154 1.78 11.61-.298 13.618-1.07 2.008-.775 7.91-3.4 9.883-7.088 3.378-6.31-3.173-21.01-8.757-23.451-.847-.371-1.823-.533-2.88-.533-4.814 0-11.308 3.359-14.978 5.597"/>
        <path id="r" d="M4.542 5.666C-1.363 9.269-.006 16.003.629 19.02c.576 2.737 2.304 11.166 7.027 13.19 4.154 1.78 11.61-.298 13.618-1.07 2.008-.775 7.91-3.4 9.883-7.088 3.378-6.31-3.173-21.01-8.757-23.451-.847-.371-1.823-.533-2.88-.533-4.814 0-11.308 3.359-14.978 5.597"/>
        <path id="t" d="M4.542 5.666C-1.363 9.269-.006 16.003.629 19.02c.576 2.737 2.304 11.166 7.027 13.19 4.154 1.78 11.61-.298 13.618-1.07 2.008-.775 7.91-3.4 9.883-7.088 3.378-6.31-3.173-21.01-8.757-23.451-.847-.371-1.823-.533-2.88-.533-4.814 0-11.308 3.359-14.978 5.597"/>
        <path id="v" d="M4.542 5.666C-1.363 9.269-.006 16.003.629 19.02c.576 2.737 2.304 11.166 7.027 13.19 4.154 1.78 11.61-.298 13.618-1.07 2.008-.775 7.91-3.4 9.883-7.088 3.378-6.31-3.173-21.01-8.757-23.451-.847-.371-1.823-.533-2.88-.533-4.814 0-11.308 3.359-14.978 5.597z"/>
    </defs>
    <g fill="none" fill-rule="evenodd" filter="url(#a)" transform="translate(4 2)">
        <g transform="translate(0 8.587)">
            <mask id="c" fill="#fff">
                <use xlink:href="#b"/>
            </mask>
            <path fill="#000000" d="M37.43 12.604c-1.087-.972-.875-3.384 3.72-2.98.322 3.608-2.769 3.83-3.72 2.98M31.56 1.091v4.49c6.926-2.838 9.971-.401 9.582.99-13.203-1.978-13 7.668-9.251 9.623 3.87 2.018 7.813.187 9.217-1.83v2.304h6.648s.54-11.698-1.215-14.211c-2.178-3.12-11.689-2.7-14.98-1.366m52.262 11.292c-1.315 0-1.704-1.897-1.704-4.008 0-2.147.236-3.652 1.665-3.616 1.396-.112 1.78 1.391 1.78 3.616 0 2.492-.537 4.008-1.74 4.008M84.098.05c-5.023 0-10.505 1.458-10.505 8.333 0 6.8 5.249 8.744 10.505 8.688 3.236 0 9.836-1.478 9.836-8.688C93.935 1.76 89.13.05 84.099.05M23.101.09c-3.206 0-4.91 1.847-4.91 2.94 0-1.169-1.654-2.94-5.258-2.94-4.213 0-5.229 2.76-5.422 3.318V.43H0v16.26h7.937V7.913c0-1.31-.118-2.766 1.371-2.766 1.565 0 1.372 1.404 1.372 2.766v8.778h7.852V7.913c0-1.49.045-2.766 1.348-2.766 1.598 0 1.347 1.714 1.347 2.766v8.778h7.793V7.709c0-3.05.93-7.62-5.919-7.62" mask="url(#c)"/>
        </g>
        <g transform="translate(44.881 .034)">
            <mask id="e" fill="#fff">
                <use xlink:href="#d"/>
            </mask>
            <path fill="#52347D" d="M29.83 9.767c2.248-4.355 4.73 17.871 1.16 15.743-3.717-2.217-8.513-8.52-11.323-9.023-2.791-.5 7.914-2.365 10.162-6.72" mask="url(#e)"/>
        </g>
        <g transform="translate(44.881 .034)">
            <mask id="g" fill="#fff">
                <use xlink:href="#f"/>
            </mask>
            <path fill="#414992" d="M20.622 15.903c4.072-.306 8.71-2.37 10.638-6.027.596-1.131-2.19-4.807-2.77-5.799-5.5-9.398-9.774 11.986-9.467 12.12 2.45 1.068 6.177 7 7.808 12.307.353 1.15 3.533-2.016 4.555-2.657-1.555-4.531-7.202-9.788-10.571-9.895.455.052-.193-.049-.193-.049" mask="url(#g)"/>
        </g>
        <g transform="translate(44.881 .034)">
            <mask id="i" fill="#fff">
                <use xlink:href="#h"/>
            </mask>
            <path fill="#246BA8" d="M19.115 16.143c3.92-.654 7.568-6.16 8.603-10.666-1.505-2.273-5.861-6.617-5.693-4.679.414 4.789 1.136 11.313-3.031 15.437-.13.13.11.365.213.524 4.263 6.569 3.937 14.738 3.417 14.733-.132-.001.6.075.906-.138.96-.667 3.566-2.39 4.236-2.9-1.793-5.357-6.152-11.366-8.651-12.311" mask="url(#i)"/>
        </g>
        <g transform="translate(44.881 .034)">
            <mask id="k" fill="#fff">
                <use xlink:href="#j"/>
            </mask>
            <path fill="#16A9C9" d="M22.564-.874c1.168 5.852.717 13.31-3.398 17.06 3.466 2.89 4.958 15.2 4.304 15.695-.654.495-2.226.406-4.34 1.318-.11-9.216.284-14.535-.217-17.186.493-.946 1.876-14.465-3.174-16.979 1.413-.748 7.409-.528 6.825.092" mask="url(#k)"/>
        </g>
        <g transform="translate(44.881 .034)">
            <mask id="m" fill="#fff">
                <use xlink:href="#l"/>
            </mask>
            <path fill="#56BB73" d="M18.546-.991c1.218 5.468 2.413 13.696.461 17.05-.038.065-.06.117-.034.193 1.091 3.113 1.251 9.271.227 16.222-.113.762.614 1.062-6.658 1.977-.128.016-.515-.384-.56-.33 3.462-4.061 5.945-9.814 6.061-16.236.264-14.514-6.9-16.384-5.131-17.353 3.223-1.766 4.142-4.074 4.427-3.068.033.116 1.179 1.417 1.207 1.545" mask="url(#m)"/>
        </g>
        <g transform="translate(44.881 .034)">
            <mask id="o" fill="#fff">
                <use xlink:href="#n"/>
            </mask>
            <path fill="#FDD40D" d="M14.53.09c7.634 11.162 3.99 27.443-1.965 34.54-2.222 2.649-6.36-1.788-5.579-2.452 5.932-5.045 13.217-12.875 8.517-22.674-.775-1.616-3.467-4.348-5.31-6.638-.322-.4-2.362-.376 2.21-2.783.496-.261 1.356-1.12 2.127.008" mask="url(#o)"/>
        </g>
        <g transform="translate(44.881 .034)">
            <mask id="q" fill="#fff">
                <use xlink:href="#p"/>
            </mask>
            <path fill="#F9A729" d="M14.996 7.645C21.855 18.08 12.43 27.43 7.343 32.507c-.027-.01-.172.032-.845-.3-1.13-.523-2.501-3.13-3.402-4.215 5.279-2.823 16.786-8.038 11.543-16.584-1.327-2.163-4.567-4.563-8.62-6.481-.11-.052-.03-.106-.09-.209-.742-1.288 3.675-3.027 4.17-2.477.105.116.19.263.315.361 1.492 1.17 3.135 2.84 4.582 5.043" mask="url(#q)"/>
        </g>
        <g transform="translate(44.881 .034)">
            <mask id="s" fill="#fff">
                <use xlink:href="#r"/>
            </mask>
            <path fill="#F26F21" d="M2.436 7.572c3.7 1.403 8.593 2.866 9.832 5.377 3.245 6.576-14.243 4.148-12.004 9.32.561 1.298 1.79 6.796 3.053 6.14 8.587-4.47 13.323-9.238 12.844-13.441-.604-5.31-6.08-8.697-10.27-10.484C.288 2.094-.098 6.61 2.436 7.572" mask="url(#s)"/>
        </g>
        <g transform="translate(44.881 .034)">
            <mask id="u" fill="#fff">
                <use xlink:href="#t"/>
            </mask>
            <path fill="#D91F26" d="M-.218 23.244c2.64-.679-.45.127 4.856-1.255 5.48-1.428 12.13-5.666 7.31-9.959-3.263-2.905-6.535-3.932-9.69-4.632-3.894 3.892-4.053 6.499-3.276 9.24.776 2.742.8 6.606.8 6.606" mask="url(#u)"/>
        </g>
        <g transform="translate(44.881 .034)">
            <mask id="w" fill="#fff">
                <use xlink:href="#v"/>
            </mask>
            <path fill="#FEFEFE" d="M6.43 3.433v21.74h7.845l.054-7.944 4.518 7.943h8.97l-5.49-9.068 5.535-7.153h-9.015l-4.56 6.494V-.122z" mask="url(#w)"/>
        </g>
    </g>
</svg>