<?xml version="1.0" encoding="UTF-8" standalone="no"?>
<!-- Generator: Adobe Illustrator 16.0.0, SVG Export Plug-In . SVG Version: 6.00 Build 0)  -->

<svg
   version="1.1"
   id="svg8"
   sodipodi:docname="Mako_keshet.svg"
   inkscape:version="1.1.1 (3bf5ae0d25, 2021-09-20)"
   x="0px"
   y="0px"
   width="1061.566px"
   height="443.979px"
   viewBox="0 0 1061.566 443.979"
   enable-background="new 0 0 1061.566 443.979"
   xml:space="preserve"
   xmlns:inkscape="http://www.inkscape.org/namespaces/inkscape"
   xmlns:sodipodi="http://sodipodi.sourceforge.net/DTD/sodipodi-0.dtd"
   xmlns="http://www.w3.org/2000/svg"
   xmlns:svg="http://www.w3.org/2000/svg"><defs
   id="defs470"><rect
   x="92.857143"
   y="542.85714"
   width="330"
   height="117.14286"
   id="rect1713" />
	

		
		
		
		
		
		
		
	</defs>
<sodipodi:namedview
   id="base"
   borderopacity="1.0"
   fit-margin-left="0"
   inkscape:cy="-74"
   bordercolor="#666666"
   pagecolor="#ffffff"
   fit-margin-top="0"
   showgrid="false"
   inkscape:cx="702"
   inkscape:zoom="0.25"
   inkscape:document-units="mm"
   inkscape:pageshadow="2"
   inkscape:pageopacity="0.0"
   inkscape:window-x="-9"
   inkscape:window-width="1920"
   inkscape:window-height="1001"
   fit-margin-bottom="0"
   fit-margin-right="0"
   inkscape:current-layer="svg8"
   inkscape:window-y="-9"
   inkscape:window-maximized="1"
   inkscape:pagecheckerboard="0"
   inkscape:snap-bbox="true"
   inkscape:bbox-paths="true"
   inkscape:bbox-nodes="true"
   inkscape:snap-bbox-edge-midpoints="true"
   inkscape:snap-bbox-midpoints="true"
   inkscape:object-paths="true"
   inkscape:snap-intersection-paths="true"
   inkscape:snap-smooth-nodes="true"
   inkscape:snap-object-midpoints="true"
   inkscape:snap-center="true"
   showguides="false"
   inkscape:guide-bbox="true"
   inkscape:snap-global="true">
	<sodipodi:guide
   position="314.756,137.065"
   orientation="1,0"
   id="guide2924" /><sodipodi:guide
   position="8.7569999,137.064"
   orientation="1,0"
   id="guide2926" /><sodipodi:guide
   position="214.635,109.455"
   orientation="1,0"
   id="guide3680" /><sodipodi:guide
   position="222.752,109.455"
   orientation="1,0"
   id="guide3682" /><sodipodi:guide
   position="201.39916,75.695995"
   orientation="0,-1"
   id="guide3817" /><sodipodi:guide
   position="230.036,81.915995"
   orientation="0,-1"
   id="guide3819" /><sodipodi:guide
   position="110.019,97.087995"
   orientation="1,0"
   id="guide3859" /></sodipodi:namedview>
<path
   d="m 13.77882,362.063 c 5.95189,-0.1096 6.67839,-0.54139 6.72118,-6.752 v -29.663 h 20.483 c 4.046,0 7.208,1.138 9.483,3.414 2.276,2.276 3.414,5.867 3.414,10.772 v 28.449 h -8.117 v -28.828 c 0,-2.681 -0.582,-4.615 -1.745,-5.805 -1.164,-1.187 -2.858,-1.781 -5.083,-1.781 H 28.617 V 354.4 c -0.19012,11.83743 -2.43442,13.81792 -14.83818,13.883 z"
   id="path4373"
   sodipodi:nodetypes="cccscsccscscccc" /><path
   d="m 838.36345,218.57406 q 0,44.49767 26.82946,68.38244 26.82948,23.88477 78.85251,23.88477 51.6958,0 78.85238,-23.88477 27.1566,-23.88477 27.1566,-68.38244 0,-43.1889 -27.1566,-64.45617 -27.15658,-21.59444 -78.85238,-21.59444 -52.02303,0 -78.85251,21.59444 -26.82946,21.26727 -26.82946,64.45617 z m 87.68657,0 q 0,-7.52534 0.32714,-14.0691 0.65444,-6.87097 2.61751,-11.77879 1.96316,-5.23504 5.56226,-8.17972 3.59909,-2.9447 9.48849,-2.9447 5.88939,0 9.4884,2.9447 3.59909,2.94468 5.56225,8.17972 1.96316,4.90782 2.61752,11.77879 0.65436,6.54376 0.65436,14.0691 0,9.48847 -0.65436,17.341 -0.65436,7.85253 -2.61752,13.74193 -1.96316,5.56221 -5.56225,8.83409 -3.59901,3.27189 -9.4884,3.27189 -5.8894,0 -9.48849,-3.27189 -3.5991,-3.27188 -5.56226,-8.83409 -1.96307,-5.8894 -2.61751,-13.74193 -0.32714,-7.85253 -0.32714,-17.341 z"
   style="font-size:40px;line-height:1.25;font-family:'Frutiger LT 95 UltraBlack';-inkscape-font-specification:'Frutiger LT 95 UltraBlack, ';white-space:pre;fill:#000000;stroke-width:8.17972"
   id="path2433" /><path
   d="m 345.58541,190.10866 q 12.43316,-6.2166 27.15666,-10.14286 15.05068,-4.25346 29.77417,-4.25346 7.85252,0 15.37787,0.98158 7.85253,0.65437 14.06911,3.27188 6.21659,2.29032 10.14285,7.19815 3.92627,4.90783 3.92627,13.08755 -5.56221,-0.65439 -14.7235,-1.30876 -8.83409,-0.98156 -17.34099,-0.98156 -15.37788,0 -31.08293,2.61751 -15.70505,2.29032 -28.46542,9.16128 -12.43317,6.87097 -20.61289,19.30412 -7.85253,12.10599 -7.85253,31.73731 0,13.41474 5.23503,22.90321 5.23502,9.48848 14.06912,15.70506 8.83408,5.8894 19.9585,8.50691 11.45159,2.94469 23.2304,2.94469 17.66818,0 32.39167,-6.87097 14.72349,-6.87095 23.2304,-21.59444 h 0.65438 V 306.915 h 76.56214 V 203.1962 q 0,-23.2304 -9.81565,-37.29951 -9.48847,-14.06912 -24.86635,-21.26726 -15.05067,-7.52535 -33.70042,-9.81567 -18.32257,-2.29031 -35.99076,-2.29031 -12.10598,0 -21.26727,0.65437 -9.16128,0.32719 -17.341,1.63594 -7.85252,1.30876 -15.70505,3.27189 -7.85252,1.63594 -17.01381,4.25345 z m 100.44693,47.11515 q 0,5.56222 -1.63595,11.12442 -1.63594,5.23502 -4.90783,9.81567 -2.94469,4.25345 -7.85254,6.87096 -4.90782,2.61751 -11.1244,2.61751 -9.48848,0 -14.39631,-3.59908 -4.90782,-3.92627 -4.90782,-12.76036 0,-6.54377 3.27189,-10.47003 3.27187,-3.92627 8.50689,-5.88941 5.56221,-1.96312 11.77881,-2.29031 6.54376,-0.65438 13.08754,-0.65438 h 8.17972 z"
   style="font-size:40px;line-height:1.25;font-family:'Frutiger LT 95 UltraBlack';-inkscape-font-specification:'Frutiger LT 95 UltraBlack, ';white-space:pre;fill:#000000;stroke-width:8.17972"
   id="path2429" /><path
   d="M 8.7570022,306.915 H 91.208531 v -98.15659 q 0,-3.59909 0,-7.52534 0.327187,-4.25347 1.635946,-7.52534 1.635937,-3.59907 4.580641,-5.8894 2.944692,-2.29032 8.506902,-2.29032 5.23502,0 8.17972,2.29032 2.94469,2.29033 4.25345,5.8894 1.63595,3.27187 1.63595,7.52534 0.32718,3.92625 0.32718,7.52534 V 306.915 h 82.45155 v -98.15659 q 0,-3.59909 0,-7.52534 0.32719,-4.25347 1.63595,-7.52534 1.63594,-3.59907 4.25345,-5.8894 2.94469,-2.29032 8.50689,-2.29032 5.56221,0 8.50692,2.29032 2.94469,2.29033 4.25345,5.8894 1.63595,3.27187 1.63595,7.52534 0.32718,3.92625 0.32718,7.52534 V 306.915 h 82.45155 V 204.83214 q 0,-12.43317 -0.98158,-25.19353 -0.98156,-13.08754 -6.54377,-23.55758 -5.5622,-10.47004 -17.99537,-17.01381 -12.10598,-6.54377 -34.68199,-6.54377 -7.52536,0 -16.35944,1.96313 -8.50691,1.63594 -16.35944,5.23501 -7.85253,3.59907 -14.06911,9.16129 -5.8894,5.5622 -7.85254,12.76036 h -0.65437 q -2.6175,-7.52535 -8.17972,-13.08754 -5.23501,-5.56222 -12.43317,-9.1613 -7.19814,-3.59907 -15.70505,-5.23502 -8.50691,-1.63593 -17.01381,-1.63593 -19.63132,0 -35.33638,7.85253 -15.37786,7.52533 -22.903206,25.52071 H 86.627889 V 136.44971 H 8.7570022 Z"
   style="font-size:40px;line-height:1.25;font-family:'Frutiger LT 95 UltraBlack';-inkscape-font-specification:'Frutiger LT 95 UltraBlack, ';white-space:pre;fill:#000000;stroke-width:8.17972"
   id="path2427" />


<path
   d="m 94.392,361.266 c -6.069,5.285 -15.376,7.879 -27.919,7.776 l -5.538,-43.395 h 7.738 l 2.428,20.18 c 2.781,-1.365 4.677,-3.16 5.689,-5.386 1.012,-2.226 1.567,-5.563 1.67,-10.015 v -4.703 h 7.738 l -0.076,4.551 c -0.102,5.564 -1.213,10.027 -3.338,13.391 -2.124,3.364 -5.766,6.082 -10.925,8.155 l 1.214,10.318 c 7.637,-0.506 13.263,-2.78 16.88,-6.828 3.616,-4.046 5.399,-9.912 5.349,-17.601 L 95.15,325.646 h 8.118 l 0.076,11.684 c 0.1,10.674 -2.884,18.652 -8.952,23.936 z"
   id="path11" /><path
   d="m 110.019,341.733 8.118,0 v 41.726 h -8.118 z m 13.581,20.33 c 2.476,-0.253 4.564,-0.847 6.258,-1.781 1.694,-0.937 3.06,-2.506 4.097,-4.705 1.036,-2.199 1.681,-5.221 1.934,-9.065 l 1.139,-14.642 h -26.856 v -6.221 h 35.58 l -0.303,5.462 -1.062,13.504 c -0.354,7.436 -2.2,13.2 -5.539,17.298 -3.337,4.096 -8.168,6.247 -14.49,6.448 z"
   id="path13"
   sodipodi:nodetypes="cccccccccccccccccc" /><path
   d="m 165.58182,362.063 c 5.95189,-0.1096 6.67839,-0.54139 6.72118,-6.752 v -29.663 h 20.483 c 4.046,0 7.208,1.138 9.483,3.414 2.276,2.276 3.414,5.867 3.414,10.772 v 28.449 h -8.117 v -28.828 c 0,-2.681 -0.582,-4.615 -1.745,-5.805 -1.164,-1.187 -2.858,-1.781 -5.083,-1.781 H 180.42 V 354.4 c -0.19012,11.83743 -2.43442,13.81792 -14.83818,13.883 z"
   id="path15"
   sodipodi:nodetypes="cccscsccscscccc" /><path
   d="m 214.635,325.648 h 8.117 l -0.076,25.187 -8.041,1.518 z"
   id="path17"
   sodipodi:nodetypes="ccccc" /><path
   d="m 264.478,362.063 v 6.221 h -13.352 -21.09 v -6.221 h 21.09 v -22.606 c 0,-2.681 -0.582,-4.615 -1.745,-5.805 -1.164,-1.187 -2.858,-1.781 -5.083,-1.781 h -14.263 v -6.221 h 16.311 c 4.047,0 7.207,1.138 9.483,3.414 2.276,2.276 3.414,5.867 3.414,10.772 v 22.229 h 5.235 z"
   id="path19" /><path
   d="m 305.217,363.315 c -3.137,3.921 -7.586,5.881 -13.352,5.881 -2.125,0 -4.3,-0.254 -6.525,-0.759 l 0.835,-6.222 c 1.922,0.406 3.565,0.607 4.93,0.607 3.844,0 6.65,-1.34 8.423,-4.021 1.768,-2.681 2.654,-6.601 2.654,-11.76 0,-5.511 -0.847,-9.469 -2.542,-11.872 -1.694,-2.402 -4.11,-3.604 -7.245,-3.604 -2.427,0 -4.414,0.696 -5.957,2.086 -1.542,1.394 -2.567,3.251 -3.072,5.577 l -5.083,29.056 h -8.116 l 5.461,-29.359 -5.917,-13.276 h 8.422 l 2.75109,7.83588 c 1.9821,-5.73519 7.40959,-8.38394 12.95291,-8.44488 5.056,0 9.001,1.76 11.834,5.272 2.832,3.517 4.249,9.017 4.249,16.501 0,7.084 -1.567,12.583 -4.703,16.502 z"
   id="path21"
   sodipodi:nodetypes="csccscscsccccccccccsc" />
<g
   id="g467">
	<polygon
   fill="#FFFFFF"
   points="570.684,112.488 570.684,254.269 570.684,254.271 570.684,263.678 570.684,322.066    570.684,325.696 570.684,333.842 634.485,333.842 647.49,333.842 671.631,333.842 674.178,333.842 674.178,329.568    674.178,304.929 674.178,294.385 674.178,259.569 674.178,258.004 674.178,236.726 680.09,246.978 682.074,250.419 691.289,266.4    695.696,274.041 698.662,279.187 710.837,300.3 713.091,304.209 713.096,304.217 730.178,333.842 732.52,333.842 751.219,333.842    768.168,333.842 787.476,333.842 804.342,333.842 804.343,333.842 812.951,333.842 847.674,333.842 801.84,263.681    788.282,242.928 777.827,226.925 777.825,226.921 777.6,226.577 776.182,224.407 775.168,222.854 776.686,220.894 787.638,206.762    792.605,200.352 842.423,136.063 842.428,136.056 844.914,132.848 843.854,132.848 843.851,132.848 800.273,132.848    799.122,132.848 799.121,132.848 762.267,132.848 760.841,132.848 760.84,132.848 735.927,132.848 735.752,132.848 735.75,132.848    731.42,132.848 718.239,150.105 712.673,157.392 712.672,157.394 701.509,172.009 696.502,178.564 696.501,178.566    684.039,194.881 674.178,207.79 674.178,168.465 674.178,137.591 674.178,116.5 674.178,79.174 674.178,54.157 674.178,25.609    570.684,73.203 570.684,88.987  "
   id="polygon27" />
	<path
   fill="#BFBDBC"
   d="M807.587,38.317c0.05,0.045,0.1,0.09,0.149,0.136c-0.007-0.006-0.014-0.013-0.021-0.019   c-0.038-0.034-0.075-0.069-0.112-0.103c-0.61-0.554-1.233-1.093-1.854-1.635c0.539,0.473,1.081,0.943,1.614,1.424   C807.438,38.186,807.514,38.25,807.587,38.317z"
   id="path29" />
	<path
   fill="#BFBDBC"
   d="M772.527,16.636c0.209,0.064,0.418,0.125,0.626,0.191c0.536,0.171,1.07,0.351,1.604,0.534   c0.096,0.032,0.19,0.063,0.286,0.096c0.021,0.007,0.041,0.014,0.062,0.021c0.106,0.042,0.211,0.089,0.317,0.132   c-0.048-0.019-0.095-0.04-0.142-0.06c0.015,0.006,0.028,0.012,0.043,0.018c-0.074-0.03-0.146-0.063-0.219-0.092   c-0.316-0.111-0.634-0.211-0.951-0.317c0.085,0.028,0.171,0.058,0.256,0.086c-0.406-0.137-0.812-0.276-1.22-0.406   c-0.319-0.102-0.64-0.196-0.959-0.293c-0.234-0.072-0.469-0.144-0.704-0.213c0.019,0.005,0.037,0.012,0.056,0.018   C771.897,16.444,772.212,16.539,772.527,16.636z"
   id="path31" />
	<path
   fill="#BFBDBC"
   d="M803.049,34.381c-0.01-0.008-0.02-0.017-0.03-0.025c-0.035-0.03-0.071-0.059-0.107-0.088   c0.011,0.009,0.021,0.018,0.032,0.027C802.979,34.323,803.014,34.352,803.049,34.381z"
   id="path33" />
	<path
   fill="#BFBDBC"
   d="M780.921,20.046c0.232,0.111,0.464,0.225,0.695,0.338c-0.245-0.12-0.49-0.24-0.736-0.358   c-0.019-0.009-0.038-0.018-0.058-0.027c0.015,0.007,0.028,0.014,0.042,0.021C780.883,20.028,780.903,20.037,780.921,20.046z"
   id="path35" />
	<path
   fill="none"
   stroke="#BFBDBC"
   stroke-width="0"
   stroke-linecap="round"
   stroke-linejoin="round"
   d="M777.991,18.695   c0.009,0.004,0.017,0.008,0.025,0.011"
   id="path37" />
	<path
   fill="#BFBDBC"
   d="M777.999,18.699c-0.01-0.004-0.02-0.009-0.03-0.014C777.979,18.69,777.989,18.695,777.999,18.699   L777.999,18.699z"
   id="path39" />
	<path
   fill="#BFBDBC"
   d="M778.924,19.116c0.021,0.01,0.043,0.02,0.064,0.029c-0.131-0.06-0.263-0.118-0.394-0.178   c0.079,0.036,0.159,0.072,0.238,0.108C778.864,19.089,778.894,19.103,778.924,19.116z"
   id="path41" />
	<path
   fill="#BFBDBC"
   d="M767.492,15.258c0.01,0.002,0.02,0.004,0.029,0.007c-0.023-0.006-0.047-0.012-0.07-0.018   c-0.017-0.004-0.033-0.008-0.051-0.012C767.432,15.242,767.462,15.25,767.492,15.258z"
   id="path43" />
	<path
   fill="#BFBDBC"
   d="M804.643,35.718c-0.506-0.433-1.017-0.859-1.529-1.283c0.507,0.419,1.012,0.841,1.512,1.269   C804.631,35.708,804.637,35.713,804.643,35.718z"
   id="path45" />
	<path
   fill="#BFBDBC"
   d="M755.55,13.233c-1.15-0.122-2.305-0.208-3.459-0.292c1.145,0.084,2.288,0.17,3.429,0.29   C755.531,13.231,755.54,13.231,755.55,13.233z"
   id="path47" />
	<path
   fill="#BFBDBC"
   d="M865.562,121.464c-0.025-0.051-0.052-0.101-0.077-0.152c0.001,0.002,0.002,0.004,0.003,0.006   C865.512,121.367,865.537,121.415,865.562,121.464z"
   id="path49" />
	<path
   fill="#BFBDBC"
   d="M848.15,89.774c0.011,0.017,0.022,0.034,0.033,0.051c-0.545-0.855-1.092-1.712-1.642-2.569   c0.01,0.015,0.019,0.029,0.028,0.044C847.099,88.126,847.625,88.95,848.15,89.774z"
   id="path51" />
	<path
   fill="#BFBDBC"
   d="M688.643,432.786c0.673-0.097,1.345-0.197,2.017-0.298c-0.575,0.086-1.15,0.171-1.726,0.254   C688.837,432.756,688.74,432.772,688.643,432.786z"
   id="path53" />
	<path
   fill="#BFBDBC"
   d="M843.934,83.228c-0.051-0.077-0.104-0.154-0.154-0.231c0.043,0.066,0.088,0.131,0.131,0.197   C843.918,83.206,843.926,83.217,843.934,83.228z"
   id="path55" />
	<path
   fill="#BFBDBC"
   d="M838.715,75.435c0.399,0.583,0.8,1.165,1.195,1.749C839.515,76.599,839.115,76.018,838.715,75.435z"
   id="path57" />
	<path
   fill="#BFBDBC"
   d="M834.646,69.591c0.01,0.013,0.02,0.027,0.029,0.04c-7.261-10.165-15.169-19.932-24.074-28.499   c0.005,0.005,0.01,0.01,0.015,0.015C819.503,49.698,827.397,59.446,834.646,69.591z"
   id="path59" />
	<path
   fill="#BFBDBC"
   d="M844.494,84.092c-0.063-0.097-0.125-0.194-0.188-0.291c0.015,0.021,0.028,0.043,0.042,0.065   C844.397,83.941,844.446,84.016,844.494,84.092z"
   id="path61" />
	<path
   fill="#BFBDBC"
   d="M766.135,14.945c0.346,0.077,0.691,0.156,1.036,0.237c-0.373-0.087-0.747-0.174-1.122-0.257   c-0.633-0.14-1.268-0.271-1.903-0.396c-0.045-0.009-0.09-0.019-0.135-0.028c0.045,0.009,0.09,0.019,0.135,0.028   c-0.08-0.016-0.158-0.034-0.238-0.05c0.012,0.002,0.023,0.005,0.035,0.008C764.676,14.63,765.406,14.783,766.135,14.945z"
   id="path63" />
	<path
   fill="none"
   stroke="#BFBDBC"
   stroke-width="0"
   stroke-linecap="round"
   stroke-linejoin="round"
   d="M761.947,14.118   c-0.008-0.001-0.017-0.003-0.024-0.004"
   id="path65" />
	<path
   fill="#BFBDBC"
   d="M755.711,13.251c1.384,0.148,2.765,0.327,4.141,0.532C758.476,13.577,757.096,13.399,755.711,13.251z"
   id="path67" />
	<path
   fill="#BFBDBC"
   d="M750.841,12.84c-1.259-0.078-2.52-0.125-3.779-0.163c1.251,0.038,2.502,0.085,3.753,0.162   C750.823,12.839,750.832,12.839,750.841,12.84z"
   id="path69" />
	<path
   fill="#BFBDBC"
   d="M751.841,418.058c-0.079,0.025-0.158,0.054-0.237,0.079c0.016-0.005,0.031-0.009,0.046-0.014   c0.168-0.055,0.335-0.111,0.502-0.166c-0.076,0.025-0.154,0.05-0.231,0.074C751.894,418.041,751.867,418.05,751.841,418.058z"
   id="path71" />
	<path
   fill="#BFBDBC"
   d="M746.193,12.643c-1.239-0.028-2.479-0.027-3.717-0.02c1.229-0.007,2.457-0.007,3.688,0.02   C746.173,12.643,746.183,12.642,746.193,12.643z"
   id="path73" />
	<path
   fill="#BFBDBC"
   d="M792.824,26.801c0.045,0.03,0.09,0.06,0.136,0.089c-0.181-0.119-0.36-0.239-0.541-0.357   c0.006,0.004,0.011,0.007,0.017,0.011C792.566,26.63,792.695,26.716,792.824,26.801z"
   id="path75" />
	<path
   fill="#BFBDBC"
   d="M792.448,26.553c0.127,0.082,0.251,0.166,0.377,0.248c-0.13-0.085-0.259-0.171-0.389-0.256   C792.44,26.548,792.444,26.551,792.448,26.553z"
   id="path77" />
	<path
   fill="#BFBDBC"
   d="M789.904,24.941c-0.009-0.005-0.018-0.011-0.026-0.017c0.008,0.004,0.015,0.009,0.021,0.014   C789.901,24.939,789.902,24.94,789.904,24.941z"
   id="path79" />
	<path
   fill="#BFBDBC"
   d="M793.758,27.418c0.007,0.004,0.014,0.009,0.021,0.013c-0.006-0.004-0.012-0.008-0.018-0.012   c-0.007-0.004-0.013-0.009-0.02-0.013C793.747,27.41,793.753,27.414,793.758,27.418z"
   id="path81" />
	<path
   fill="#BFBDBC"
   d="M791.133,25.709c0.012,0.007,0.022,0.014,0.034,0.021c-0.011-0.007-0.021-0.014-0.032-0.021   c-0.012-0.007-0.022-0.014-0.034-0.022C791.112,25.695,791.122,25.702,791.133,25.709z"
   id="path83" />
	<path
   fill="none"
   stroke="#BFBDBC"
   stroke-width="0"
   stroke-linecap="round"
   stroke-linejoin="round"
   d="M797.487,30.043   c0.027,0.02,0.055,0.04,0.082,0.06"
   id="path85" />
	<path
   fill="#BFBDBC"
   d="M797.614,30.137c-0.012-0.008-0.022-0.018-0.034-0.026c-0.035-0.026-0.071-0.052-0.106-0.078   c-0.004-0.003-0.009-0.006-0.013-0.009c0.043,0.032,0.086,0.063,0.129,0.095C797.598,30.125,797.606,30.131,797.614,30.137z"
   id="path87" />
	<path
   fill="#BFBDBC"
   d="M794.965,28.246c0.01,0.007,0.02,0.015,0.03,0.021c0.47,0.326,0.932,0.662,1.396,0.995   c-0.48-0.344-0.959-0.693-1.445-1.03c-0.021-0.014-0.04-0.028-0.06-0.042c0.02,0.014,0.039,0.028,0.059,0.042   c-0.031-0.021-0.063-0.043-0.094-0.064c0.02,0.013,0.038,0.026,0.057,0.04C794.927,28.219,794.946,28.233,794.965,28.246z"
   id="path89" />
	<path
   fill="#BFBDBC"
   d="M788.233,23.944c0.03,0.017,0.06,0.035,0.089,0.052c-0.049-0.029-0.098-0.059-0.147-0.087   c-0.024-0.015-0.049-0.029-0.073-0.043C788.146,23.891,788.189,23.918,788.233,23.944z"
   id="path91" />
	<path
   fill="#BFBDBC"
   d="M802.319,33.781c0.009,0.007,0.018,0.014,0.026,0.021c-0.003-0.002-0.006-0.005-0.009-0.007   c-0.008-0.007-0.017-0.013-0.024-0.02C802.314,33.777,802.317,33.779,802.319,33.781z"
   id="path93" />
	<path
   fill="#BFBDBC"
   d="M783.802,21.49c0.121,0.063,0.243,0.127,0.365,0.19c0.178,0.094,0.358,0.184,0.535,0.279   c0.008,0.004,0.016,0.008,0.023,0.012c-0.326-0.174-0.657-0.342-0.986-0.513c-0.013-0.007-0.026-0.013-0.039-0.02   c0.022,0.012,0.046,0.024,0.068,0.036C783.78,21.478,783.791,21.484,783.802,21.49z"
   id="path95" />
	<path
   fill="#BFBDBC"
   d="M801.526,33.144c-0.275-0.221-0.549-0.444-0.826-0.663c0.007,0.005,0.014,0.011,0.02,0.016   C800.99,32.711,801.256,32.928,801.526,33.144z"
   id="path97" />
	<path
   fill="#BFBDBC"
   d="M781.896,20.52c0.013,0.006,0.024,0.012,0.037,0.018C781.92,20.532,781.908,20.525,781.896,20.52   c-0.012-0.007-0.024-0.013-0.037-0.019C781.871,20.507,781.884,20.514,781.896,20.52z"
   id="path99" />
	<path
   fill="#4B2975"
   d="M493.614,193.261c-0.004,0.345-0.01,0.689-0.012,1.034c0-0.008,0-0.016,0-0.024   C493.604,193.934,493.61,193.598,493.614,193.261z"
   id="path101" />
	<path
   fill="#4B2975"
   d="M493.74,188.057c-0.02,0.54-0.04,1.08-0.056,1.62c0-0.008,0-0.016,0.001-0.023   C493.7,189.12,493.719,188.589,493.74,188.057z"
   id="path103" />
	<path
   fill="#4B2975"
   d="M493.606,196.665c0.002,0.259,0.006,0.519,0.009,0.778c-0.002-0.249-0.007-0.497-0.008-0.745   C493.607,196.687,493.606,196.676,493.606,196.665z"
   id="path105" />
	<path
   fill="#4B2975"
   d="M496.638,163.219c-0.003,0.016-0.006,0.031-0.009,0.046c0.002-0.013,0.005-0.025,0.008-0.039   C496.637,163.223,496.637,163.221,496.638,163.219z"
   id="path107" />
	<path
   fill="#4B2975"
   d="M494.361,178.628c-0.05,0.537-0.091,1.076-0.137,1.613c0.001-0.01,0.002-0.02,0.003-0.03   C494.272,179.683,494.312,179.155,494.361,178.628z"
   id="path109" />
	<path
   fill="#4B2975"
   d="M883.216,161.856c2.039,5.431,3.955,10.905,5.737,16.417C887.171,172.761,885.255,167.287,883.216,161.856z   "
   id="path111" />
	<path
   fill="#4B2975"
   d="M744.992,420.223c0.038-0.012,0.076-0.023,0.113-0.035c1.785-0.546,3.566-1.106,5.343-1.68   c-0.399,0.129-0.801,0.25-1.201,0.377C747.831,419.338,746.414,419.789,744.992,420.223z"
   id="path113" />
	<path
   fill="#4B2975"
   d="M818.547,388.316C818.547,388.316,818.547,388.316,818.547,388.316c-0.19-0.879-0.389-1.758-0.582-2.636   C818.158,386.558,818.356,387.437,818.547,388.316z"
   id="path115" />
	<path
   fill="#4B2975"
   d="M737.72,422.366c0.037-0.011,0.074-0.021,0.112-0.032c1.671-0.475,3.341-0.956,5.006-1.454   c0.281-0.084,0.562-0.172,0.842-0.257c0.047-0.014,0.093-0.028,0.139-0.042c-1.271,0.384-2.548,0.749-3.822,1.119   C739.237,421.92,738.481,422.15,737.72,422.366z"
   id="path117" />
	<path
   fill="#4B2975"
   d="M669.039,435.02c-0.415,0.037-0.832,0.071-1.247,0.107C668.207,435.092,668.624,435.057,669.039,435.02z"
   id="path119" />
	<path
   fill="#4B2975"
   d="M617.457,434.51c-0.52-0.08-1.041-0.155-1.56-0.242C616.416,434.356,616.938,434.43,617.457,434.51z"
   id="path121" />
	<path
   fill="#4B2975"
   d="M640.873,436.306c0.823,0.008,1.646,0.013,2.471,0.011C642.52,436.319,641.697,436.314,640.873,436.306z"
   id="path123" />
	<path
   fill="#4B2975"
   d="M612.393,433.631c0.071,0.014,0.143,0.025,0.214,0.039c-0.057-0.011-0.113-0.021-0.17-0.031   C612.422,433.635,612.407,433.634,612.393,433.631z"
   id="path125" />
	<path
   fill="#4B2975"
   d="M665.537,435.317c-0.5,0.041-1.002,0.078-1.504,0.116C664.535,435.395,665.037,435.358,665.537,435.317z"
   id="path127" />
	<path
   fill="#4B2975"
   d="M647.724,436.264c-0.58,0.012-1.16,0.027-1.74,0.036C646.564,436.292,647.144,436.276,647.724,436.264z"
   id="path129" />
	<path
   fill="#4B2975"
   d="M651.339,436.161c-0.587,0.021-1.173,0.044-1.76,0.061C650.166,436.205,650.752,436.182,651.339,436.161z"
   id="path131" />
	<path
   fill="#4B2975"
   d="M621.087,435.026c-0.544-0.07-1.089-0.136-1.631-0.212C619.998,434.89,620.543,434.956,621.087,435.026z"
   id="path133" />
	<path
   fill="#4B2975"
   d="M624.709,435.443c-0.582-0.06-1.163-0.118-1.743-0.185C623.546,435.325,624.127,435.384,624.709,435.443z"
   id="path135" />
	<path
   fill="#4B2975"
   d="M639.009,436.286c-0.599-0.012-1.198-0.03-1.797-0.047C637.811,436.256,638.41,436.274,639.009,436.286z"
   id="path137" />
	<path
   fill="#4B2975"
   d="M628.29,435.769c-0.598-0.047-1.195-0.097-1.792-0.15C627.095,435.673,627.693,435.722,628.29,435.769z"
   id="path139" />
	<path
   fill="#4B2975"
   d="M635.434,436.184c-0.606-0.022-1.213-0.052-1.818-0.08C634.221,436.133,634.826,436.162,635.434,436.184z"
   id="path141" />
	<path
   fill="#4B2975"
   d="M658.485,435.816c-0.569,0.034-1.139,0.067-1.709,0.099C657.346,435.884,657.915,435.85,658.485,435.816z"
   id="path143" />
	<path
   fill="#4B2975"
   d="M654.918,436.01c-0.579,0.028-1.158,0.057-1.738,0.081C653.76,436.067,654.339,436.039,654.918,436.01z"
   id="path145" />
	<path
   fill="#4B2975"
   d="M662.02,435.584c-0.546,0.039-1.092,0.075-1.639,0.112C660.928,435.659,661.474,435.623,662.02,435.584z"
   id="path147" />
	<path
   fill="#4B2975"
   d="M631.865,436.014c-0.606-0.035-1.213-0.074-1.818-0.115C630.653,435.94,631.258,435.979,631.865,436.014z"
   id="path149" />
	<path
   fill="#4B2975"
   d="M855.074,101.551c-0.284-0.511-0.566-1.024-0.852-1.534c-1.168-2.088-2.345-4.17-3.537-6.237   c1.729,2.998,3.425,6.027,5.101,9.071C855.548,102.419,855.315,101.982,855.074,101.551z"
   id="path151" />
	<path
   fill="#4B2975"
   d="M861.744,113.964c0.001-0.001,0.002-0.002,0.002-0.003v0c0,0,0,0,0,0c-1.044-2.01-2.104-4.009-3.172-6.001   c-0.224-0.417-0.449-0.832-0.675-1.248c-0.347-0.641-0.7-1.276-1.049-1.916C858.507,107.833,860.145,110.885,861.744,113.964   L861.744,113.964z"
   id="path153" />
	<path
   fill="#4B2975"
   d="M865.525,121.393c-0.013-0.024-0.024-0.048-0.036-0.073c0,0-0.001-0.001-0.001-0.002   c-0.001-0.002-0.002-0.004-0.003-0.006c-1.21-2.429-2.438-4.847-3.686-7.251c0.916,1.764,1.808,3.543,2.703,5.32   C864.84,120.052,865.189,120.719,865.525,121.393z"
   id="path155" />
	<path
   fill="#4B2975"
   d="M861.743,113.964c-0.111,0.246-0.229,0.485-0.342,0.73c0.112-0.245,0.231-0.483,0.343-0.729   C861.744,113.965,861.743,113.965,861.743,113.964z"
   id="path157" />
	<path
   fill="#4B2975"
   d="M497.64,158.659c0-0.001,0-0.001,0-0.002c-0.147,0.618-0.294,1.235-0.432,1.854c0,0,0-0.001,0-0.001   C497.346,159.891,497.493,159.275,497.64,158.659z"
   id="path159" />
	<path
   fill="#4B2975"
   d="M818.692,388.231c1.82-1.057,3.629-2.131,5.429-3.223c0.016-0.01,0.031-0.02,0.047-0.029   c-1.221,0.741-2.453,1.463-3.683,2.188C819.886,387.52,819.293,387.883,818.692,388.231z"
   id="path161" />
	<path
   fill="#4B2975"
   d="M498.788,154.168c-0.157,0.571-0.309,1.143-0.458,1.715c0.149-0.572,0.301-1.143,0.458-1.714   C498.788,154.169,498.788,154.168,498.788,154.168z"
   id="path163" />
	<path
   fill="#4B2975"
   d="M805.958,339.092c-0.53-1.756-1.068-3.506-1.615-5.25h-0.001   C804.89,335.586,805.428,337.336,805.958,339.092z"
   id="path165" />
	<path
   fill="#4B2975"
   d="M836.037,377.423c1.492-0.996,2.973-2.007,4.448-3.027c0.029-0.02,0.059-0.039,0.087-0.06   c-1.529,1.059-3.064,2.106-4.611,3.138C835.987,377.456,836.012,377.439,836.037,377.423z"
   id="path167" />
	<path
   fill="#4B2975"
   d="M868.226,352.786c0.7-0.642,1.394-1.29,2.078-1.948c0.021-0.02,0.041-0.04,0.063-0.06   c-0.724,0.697-1.458,1.384-2.2,2.063C868.186,352.823,868.206,352.804,868.226,352.786z"
   id="path169" />
	<path
   fill="none"
   stroke="#4B2975"
   stroke-width="0"
   stroke-linecap="round"
   stroke-linejoin="round"
   d="M840.486,374.395   c-1.476,1.021-2.956,2.031-4.448,3.027"
   id="path171" />
	<path
   fill="#4B2975"
   d="M824.575,384.731c1.731-1.054,3.451-2.124,5.161-3.209c0.006-0.004,0.011-0.007,0.017-0.011   c-1.741,1.104-3.492,2.194-5.253,3.266C824.525,384.762,824.55,384.747,824.575,384.731z"
   id="path173" />
	<path
   fill="#4B2975"
   d="M841.569,373.648c1.373-0.959,2.734-1.933,4.093-2.911c0.059-0.042,0.118-0.085,0.177-0.127   c-1.424,1.028-2.852,2.049-4.291,3.053C841.554,373.658,841.562,373.653,841.569,373.648z"
   id="path175" />
	<path
   fill="none"
   stroke="#4B2975"
   stroke-width="0"
   stroke-linecap="round"
   stroke-linejoin="round"
   d="M870.304,350.838   c-0.685,0.658-1.378,1.307-2.078,1.948"
   id="path177" />
	<path
   fill="#4B2975"
   d="M865.676,355.053c0.69-0.596,1.374-1.198,2.05-1.809c0.018-0.016,0.034-0.032,0.052-0.048   c-0.328,0.298-0.665,0.586-0.996,0.88C866.414,354.403,866.048,354.731,865.676,355.053z"
   id="path179" />
	<path
   fill="#4B2975"
   d="M888.965,178.31c-29.216,30.333-72.744,43.196-112.783,46.097l1.418,2.17l0.226,0.344l0.002,0.004   l10.455,16.004c29.655,24.056,60.482,67.307,84.64,105.313c-0.779,0.799-1.572,1.586-2.375,2.362   c0.019-0.018,0.037-0.035,0.056-0.054c0.778-0.754,1.546-1.517,2.305-2.292c18.907-19.347,30.931-45.125,31.094-72.559   C904.924,242.514,899.135,209.782,888.965,178.31z"
   id="path181" />
	<path
   fill="none"
   stroke="#4B2975"
   stroke-width="0"
   stroke-linecap="round"
   stroke-linejoin="round"
   d="M872.907,348.258   c-0.759,0.775-1.526,1.538-2.305,2.292"
   id="path183" />
	<path
   fill="#4B2975"
   d="M862.655,357.583c-1.686,1.402-3.387,2.785-5.102,4.149C859.268,360.367,860.969,358.985,862.655,357.583   c0.865-0.696,1.716-1.407,2.56-2.127c-0.451,0.386-0.912,0.759-1.369,1.138C863.448,356.923,863.056,357.26,862.655,357.583z"
   id="path185" />
	<path
   fill="#4B2975"
   d="M592.773,427.764c-0.008-0.003-0.016-0.006-0.024-0.009c0.826,0.345,1.659,0.67,2.494,0.99   c-0.053-0.021-0.105-0.043-0.158-0.063C594.311,428.385,593.538,428.085,592.773,427.764z"
   id="path187" />
	<path
   fill="#4B2975"
   d="M810.615,41.147c8.887,8.552,16.779,18.301,24.03,28.444C827.397,59.446,819.503,49.698,810.615,41.147z"
   id="path189" />
	<path
   fill="#4B2975"
   d="M599.19,430.167c-0.011-0.003-0.021-0.006-0.032-0.01c0.935,0.313,1.875,0.606,2.819,0.891   c-0.051-0.015-0.101-0.032-0.151-0.048C600.944,430.732,600.063,430.459,599.19,430.167z"
   id="path191" />
	<path
   fill="#4B2975"
   d="M605.754,432.112c-0.014-0.003-0.027-0.006-0.04-0.01c1.039,0.272,2.083,0.526,3.132,0.769   c-0.048-0.012-0.095-0.024-0.142-0.035C607.717,432.607,606.733,432.368,605.754,432.112z"
   id="path193" />
	<path
   fill="#4B2975"
   d="M609.037,432.916c0.479,0.109,0.962,0.204,1.442,0.308c-0.467-0.101-0.936-0.192-1.4-0.299   C609.066,432.922,609.052,432.92,609.037,432.916z"
   id="path195" />
	<path
   fill="#4B2975"
   d="M602.42,431.185c0.158,0.047,0.318,0.087,0.477,0.133c-0.146-0.042-0.295-0.08-0.441-0.123   C602.444,431.191,602.432,431.188,602.42,431.185z"
   id="path197" />
	<path
   fill="none"
   stroke="#4B2975"
   stroke-width="0"
   stroke-linecap="round"
   stroke-linejoin="round"
   d="M764.146,14.529   c-0.045-0.009-0.09-0.019-0.135-0.028"
   id="path199" />
	<path
   fill="none"
   stroke="#4B2975"
   stroke-width="0"
   stroke-linecap="round"
   stroke-linejoin="round"
   d="M764.146,14.529   c0.467,0.091,0.934,0.187,1.398,0.287"
   id="path201" />
	<path
   fill="#4B2975"
   d="M763.943,14.487c1.188,0.232,2.372,0.489,3.55,0.771c-0.03-0.007-0.061-0.015-0.092-0.022   c-0.076-0.018-0.153-0.035-0.229-0.053c-0.345-0.081-0.69-0.161-1.036-0.237C765.406,14.783,764.676,14.63,763.943,14.487z"
   id="path203" />
	<path
   fill="none"
   stroke="#4B2975"
   stroke-width="0"
   stroke-linecap="round"
   stroke-linejoin="round"
   d="M767.401,15.235   c-0.076-0.018-0.153-0.035-0.229-0.053"
   id="path205" />
	<path
   fill="none"
   stroke="#4B2975"
   stroke-width="0"
   stroke-linecap="round"
   stroke-linejoin="round"
   d="M766.135,14.945   c0.346,0.077,0.691,0.156,1.036,0.237"
   id="path207" />
	<path
   fill="#4B2975"
   d="M690.659,432.488c1.253-0.188,2.505-0.378,3.757-0.578c-1.826,0.293-3.653,0.566-5.482,0.832   C689.509,432.659,690.084,432.574,690.659,432.488z"
   id="path209" />
	<path
   fill="none"
   stroke="#4B2975"
   stroke-width="0"
   stroke-linecap="round"
   stroke-linejoin="round"
   d="M770.163,15.947   c0.367,0.1,0.731,0.2,1.098,0.307"
   id="path211" />
	<path
   fill="none"
   stroke="#4B2975"
   stroke-width="0"
   stroke-linecap="round"
   stroke-linejoin="round"
   d="M767.984,15.379   c0.454,0.11,0.905,0.225,1.355,0.343"
   id="path213" />
	<path
   fill="#4B2975"
   d="M697.906,431.339c0.283-0.048,0.567-0.091,0.851-0.14c0.99-0.17,1.979-0.354,2.968-0.531   c-1.988,0.358-3.979,0.697-5.972,1.023C696.471,431.574,697.19,431.46,697.906,431.339z"
   id="path215" />
	<path
   fill="#4B2975"
   d="M706.761,429.731c0.639-0.124,1.277-0.252,1.916-0.379c0.183-0.037,0.366-0.072,0.549-0.109   c-2.239,0.449-4.483,0.876-6.73,1.285C703.918,430.27,705.34,430.006,706.761,429.731z"
   id="path217" />
	<path
   fill="#4B2975"
   d="M773.153,16.828c-0.208-0.066-0.417-0.127-0.626-0.191c-0.314-0.098-0.63-0.193-0.945-0.286   c1.161,0.343,2.315,0.709,3.461,1.107c-0.096-0.033-0.19-0.064-0.286-0.096C774.223,17.178,773.689,16.999,773.153,16.828z"
   id="path219" />
	<path
   fill="#4B2975"
   d="M511.618,300.83c0.036,0.131,0.073,0.262,0.11,0.393c-0.015-0.056-0.031-0.111-0.046-0.167   C511.661,300.98,511.639,300.905,511.618,300.83z"
   id="path221" />
	<path
   fill="#4B2975"
   d="M512.27,303.154c0.036,0.128,0.071,0.255,0.107,0.382c-0.031-0.109-0.061-0.219-0.092-0.328   C512.28,303.19,512.275,303.173,512.27,303.154z"
   id="path223" />
	<path
   fill="#4B2975"
   d="M494.702,216.953c-0.001-0.013-0.003-0.026-0.004-0.04c0.096,0.984,0.204,1.968,0.311,2.952   c-0.007-0.066-0.014-0.132-0.021-0.198C494.89,218.763,494.79,217.858,494.702,216.953z"
   id="path225" />
	<path
   fill="#4B2975"
   d="M513.986,309.155c0.207,0.712,0.416,1.424,0.626,2.135c-0.202-0.684-0.402-1.368-0.601-2.051   C514.002,309.211,513.994,309.182,513.986,309.155z"
   id="path227" />
	<path
   fill="#4B2975"
   d="M513.876,308.777c0.022,0.078,0.045,0.157,0.068,0.235c-0.01-0.034-0.02-0.068-0.029-0.103   C513.902,308.866,513.889,308.821,513.876,308.777z"
   id="path229" />
	<path
   fill="#4B2975"
   d="M512.803,305.042c-0.02-0.068-0.04-0.138-0.06-0.207c0.258,0.909,0.519,1.819,0.781,2.729   c-0.019-0.065-0.037-0.131-0.056-0.196C513.245,306.593,513.024,305.817,512.803,305.042z"
   id="path231" />
	<path
   fill="#4B2975"
   d="M495.776,226.277c0.118,0.897,0.239,1.794,0.364,2.69c-0.005-0.04-0.011-0.08-0.016-0.12   C496.004,227.991,495.888,227.135,495.776,226.277z"
   id="path233" />
	<path
   fill="#4B2975"
   d="M515.264,313.481c0.221,0.737,0.44,1.475,0.664,2.212c-0.01-0.034-0.021-0.069-0.031-0.104   C515.684,314.886,515.474,314.183,515.264,313.481z"
   id="path235" />
	<path
   fill="#4B2975"
   d="M496.997,234.731c0.107,0.679,0.219,1.356,0.329,2.034c-0.102-0.624-0.204-1.248-0.303-1.873   C497.015,234.839,497.006,234.785,496.997,234.731z"
   id="path237" />
	<path
   fill="#4B2975"
   d="M496.357,230.492c-0.005-0.035-0.01-0.07-0.016-0.104c0.152,1.053,0.309,2.105,0.471,3.158   c-0.006-0.037-0.011-0.074-0.017-0.111C496.645,232.454,496.499,231.473,496.357,230.492z"
   id="path239" />
	<path
   fill="#4B2975"
   d="M495.186,221.495c-0.002-0.017-0.004-0.034-0.006-0.051c0.112,0.983,0.234,1.966,0.356,2.949   c-0.005-0.047-0.011-0.093-0.017-0.14C495.405,223.335,495.291,222.415,495.186,221.495z"
   id="path241" />
	<path
   fill="#4B2975"
   d="M506.005,278.809c0.804,3.435,1.612,6.854,2.415,10.241c0.066,0.248,0.135,0.498,0.201,0.747   c-0.066-0.249-0.133-0.499-0.2-0.747C507.617,285.662,506.809,282.245,506.005,278.809z"
   id="path243" />
	<path
   fill="#4B2975"
   d="M501.272,257.698c0.097,0.463,0.198,0.923,0.296,1.386c-0.036-0.168-0.07-0.335-0.105-0.503   C501.401,258.286,501.334,257.993,501.272,257.698z"
   id="path245" />
	<path
   fill="#4B2975"
   d="M504.289,271.4c-0.217-0.951-0.432-1.907-0.647-2.862C503.857,269.493,504.072,270.448,504.289,271.4z"
   id="path247" />
	<path
   fill="#4B2975"
   d="M499.07,246.635c-0.146-0.778-0.292-1.557-0.435-2.336C498.777,245.079,498.923,245.857,499.07,246.635z"
   id="path249" />
	<path
   fill="#4B2975"
   d="M499.889,250.904c0.13,0.661,0.264,1.32,0.397,1.98c-0.087-0.433-0.172-0.865-0.258-1.298   C499.983,251.358,499.934,251.132,499.889,250.904z"
   id="path251" />
	<path
   fill="#4B2975"
   d="M502.325,262.596c0.172,0.794,0.344,1.588,0.519,2.379c-0.039-0.176-0.076-0.354-0.115-0.531   C502.594,263.829,502.459,263.213,502.325,262.596z"
   id="path253" />
	<path
   fill="#4B2975"
   d="M501.036,256.545c0.041,0.196,0.08,0.394,0.121,0.589c-0.032-0.151-0.061-0.305-0.093-0.456   C501.054,256.634,501.045,256.589,501.036,256.545z"
   id="path255" />
	<path
   fill="#4B2975"
   d="M505.709,277.549c-0.258-1.104-0.513-2.217-0.77-3.326C505.196,275.333,505.451,276.443,505.709,277.549z"
   id="path257" />
	<path
   fill="#4B2975"
   d="M502.882,265.145c0.008,0.036,0.017,0.072,0.024,0.108c-0.002-0.009-0.004-0.018-0.006-0.026   C502.895,265.2,502.888,265.173,502.882,265.145z"
   id="path259" />
	<path
   fill="#4B2975"
   d="M560.605,403.915c0.01,0.011,0.019,0.021,0.027,0.031c-0.009-0.01-0.017-0.02-0.025-0.029   C560.606,403.916,560.606,403.916,560.605,403.915z"
   id="path261" />
	<path
   fill="#4B2975"
   d="M554.139,396.14c0.352,0.452,0.7,0.905,1.058,1.354c-0.268-0.335-0.527-0.676-0.792-1.014   C554.316,396.367,554.227,396.254,554.139,396.14z"
   id="path263" />
	<path
   fill="#4B2975"
   d="M540.224,375.177c-0.114-0.202-0.227-0.404-0.34-0.605C539.997,374.772,540.11,374.974,540.224,375.177z"
   id="path265" />
	<path
   fill="#4B2975"
   d="M545.339,383.663c-0.313-0.49-0.63-0.979-0.938-1.473C544.709,382.683,545.026,383.173,545.339,383.663z"
   id="path267" />
	<path
   fill="#4B2975"
   d="M538.076,371.283c-0.242-0.45-0.477-0.905-0.716-1.357C537.6,370.378,537.834,370.833,538.076,371.283z"
   id="path269" />
	<path
   fill="#4B2975"
   d="M542.993,379.891c-0.262-0.433-0.528-0.862-0.787-1.297C542.465,379.03,542.732,379.459,542.993,379.891z"
   id="path271" />
	<path
   fill="#4B2975"
   d="M552.615,394.157c-0.363-0.482-0.722-0.969-1.079-1.455C551.893,393.188,552.251,393.675,552.615,394.157z"
   id="path273" />
	<path
   fill="#4B2975"
   d="M550.115,390.742c-0.354-0.498-0.707-0.998-1.056-1.499C549.407,389.744,549.76,390.244,550.115,390.742z"
   id="path275" />
	<path
   fill="#4B2975"
   d="M547.695,387.25c-0.339-0.502-0.679-1.005-1.012-1.511C547.016,386.245,547.356,386.748,547.695,387.25z"
   id="path277" />
	<path
   fill="#4B2975"
   d="M536.108,367.526c-0.263-0.514-0.52-1.031-0.778-1.548C535.588,366.495,535.845,367.012,536.108,367.526z"
   id="path279" />
	<path
   fill="#4B2975"
   d="M528.877,351.997c-0.228-0.536-0.457-1.071-0.681-1.609C528.42,350.926,528.65,351.461,528.877,351.997z"
   id="path281" />
	<path
   fill="#4B2975"
   d="M527.176,347.899c-0.197-0.486-0.398-0.972-0.594-1.46C526.778,346.927,526.979,347.413,527.176,347.899z"
   id="path283" />
	<path
   fill="#4B2975"
   d="M530.601,355.967c-0.244-0.55-0.489-1.101-0.73-1.652C530.113,354.866,530.357,355.417,530.601,355.967z"
   id="path285" />
	<path
   fill="#4B2975"
   d="M534.21,363.724c-0.264-0.54-0.523-1.083-0.783-1.626C533.687,362.641,533.947,363.184,534.21,363.724z"
   id="path287" />
	<path
   fill="#4B2975"
   d="M532.376,359.872c-0.257-0.551-0.511-1.104-0.763-1.656C531.865,358.768,532.119,359.321,532.376,359.872z"
   id="path289" />
	<path
   fill="#4B2975"
   d="M557.871,400.761c-0.314-0.372-0.618-0.752-0.929-1.126C557.253,400.01,557.557,400.389,557.871,400.761z"
   id="path291" />
	<path
   fill="#4B2975"
   d="M566.115,409.754c-0.025-0.025-0.051-0.051-0.076-0.076C566.064,409.703,566.089,409.728,566.115,409.754z"
   id="path293" />
	<path
   fill="#4B2975"
   d="M569.027,412.585c-0.139-0.131-0.273-0.264-0.411-0.395C568.753,412.321,568.888,412.454,569.027,412.585z"
   id="path295" />
	<path
   fill="none"
   stroke="#4B2975"
   stroke-width="0"
   stroke-linecap="round"
   stroke-linejoin="round"
   d="M761.677,14.075   c0.068,0.011,0.137,0.021,0.204,0.033"
   id="path297" />
	<path
   fill="#4B2975"
   d="M760.244,13.844c1.155,0.178,2.308,0.374,3.455,0.595c-0.583-0.112-1.167-0.22-1.753-0.321   c-0.09-0.016-0.18-0.028-0.27-0.043c-0.477-0.081-0.954-0.159-1.433-0.233c0,0,0,0,0,0.001S760.244,13.844,760.244,13.844z"
   id="path299" />
	<path
   fill="#4B2975"
   d="M587.277,425.232c0.463,0.229,0.925,0.459,1.391,0.683c-0.057-0.027-0.112-0.057-0.169-0.084   C588.09,425.634,587.684,425.431,587.277,425.232z"
   id="path301" />
	<path
   fill="#4B2975"
   d="M574.987,417.645c0.306,0.224,0.613,0.443,0.92,0.667c-0.057-0.042-0.114-0.082-0.171-0.124   C575.487,418.006,575.237,417.827,574.987,417.645z"
   id="path303" />
	<path
   fill="#4B2975"
   d="M802.944,34.295c0.453,0.374,0.903,0.751,1.352,1.132c0.109,0.093,0.222,0.184,0.33,0.277   c-0.5-0.428-1.005-0.849-1.512-1.269c-0.021-0.018-0.043-0.036-0.064-0.054C803.014,34.352,802.979,34.323,802.944,34.295z"
   id="path305" />
	<path
   fill="#4B2975"
   d="M583.462,423.207c0.174,0.099,0.352,0.189,0.527,0.286c-0.171-0.094-0.344-0.182-0.513-0.278   C583.472,423.212,583.467,423.21,583.462,423.207z"
   id="path307" />
	<path
   fill="#4B2975"
   d="M582.062,422.373c0.073,0.043,0.146,0.088,0.219,0.131c-0.058-0.034-0.115-0.069-0.173-0.104   C582.092,422.391,582.077,422.382,582.062,422.373z"
   id="path309" />
	<path
   fill="#4B2975"
   d="M577.534,419.489c0.418,0.288,0.842,0.559,1.265,0.834c-0.42-0.275-0.843-0.543-1.258-0.83   C577.539,419.492,577.536,419.49,577.534,419.489z"
   id="path311" />
	<path
   fill="#4B2975"
   d="M518.302,323.262c-0.007-0.022-0.015-0.045-0.021-0.066c0.583,1.814,1.178,3.625,1.787,5.433   c-0.012-0.034-0.023-0.069-0.035-0.104C519.444,326.773,518.867,325.019,518.302,323.262z"
   id="path313" />
	<path
   fill="#4B2975"
   d="M520.325,329.403c-0.006-0.018-0.012-0.035-0.018-0.053c0.523,1.545,1.056,3.087,1.599,4.625   c-0.533-1.51-1.056-3.021-1.569-4.537C520.334,329.427,520.329,329.415,520.325,329.403z"
   id="path315" />
	<path
   fill="#4B2975"
   d="M517.585,321.035c-0.338-1.069-0.667-2.139-0.998-3.209C516.918,318.895,517.247,319.966,517.585,321.035z"
   id="path317" />
	<path
   fill="#4B2975"
   d="M809.645,66.11c-1.344,22.591-4.251,45.07-10.523,66.738h0.001C805.394,111.179,808.302,88.7,809.645,66.11   z"
   id="path319" />
	<path
   fill="#4B2975"
   d="M759.984,13.805c0-0.001,0-0.003,0-0.005c0,0,0,0,0,0c-0.044-0.006-0.088-0.01-0.132-0.017   c-1.376-0.206-2.757-0.384-4.141-0.532c-0.012-0.001-0.022-0.003-0.033-0.004C757.117,13.401,758.553,13.589,759.984,13.805z"
   id="path321" />
	<path
   fill="#4B2975"
   d="M524.241,340.385c0.235,0.626,0.467,1.253,0.706,1.877c-0.012-0.031-0.023-0.063-0.035-0.094   C524.685,341.576,524.465,340.98,524.241,340.385z"
   id="path323" />
	<path
   fill="#4B2975"
   d="M791.133,25.709c-0.011-0.007-0.021-0.014-0.032-0.021c-0.391-0.246-0.782-0.493-1.176-0.735   c-0.007-0.004-0.015-0.008-0.021-0.012c-0.002-0.001-0.003-0.002-0.005-0.003C790.313,25.192,790.723,25.45,791.133,25.709z"
   id="path325" />
	<path
   fill="#4B2975"
   d="M788.233,23.944c-0.044-0.026-0.087-0.053-0.132-0.079c-0.212-0.126-0.425-0.251-0.638-0.375   C787.721,23.638,787.976,23.793,788.233,23.944z"
   id="path327" />
	<path
   fill="#4B2975"
   d="M811.209,392.442c-0.738,0.403-1.482,0.795-2.224,1.192C809.727,393.237,810.471,392.845,811.209,392.442z"
   id="path329" />
	<path
   fill="#4B2975"
   d="M802.386,397.111c0.073-0.037,0.146-0.075,0.22-0.112c0.392-0.2,0.775-0.414,1.166-0.615   c-1.206,0.622-2.415,1.24-3.629,1.848C800.89,397.857,801.641,397.491,802.386,397.111z"
   id="path331" />
	<path
   fill="#4B2975"
   d="M798.296,399.153c-1.987,0.979-3.981,1.945-5.987,2.887C794.316,401.099,796.309,400.133,798.296,399.153z"
   id="path333" />
	<path
   fill="#4B2975"
   d="M797.628,30.148c0.08,0.059,0.158,0.121,0.238,0.18c0.716,0.53,1.429,1.064,2.133,1.61   c-0.792-0.614-1.592-1.218-2.398-1.812C797.61,30.134,797.618,30.14,797.628,30.148c-0.006-0.004-0.01-0.007-0.015-0.011   c-0.008-0.006-0.016-0.012-0.024-0.018c-0.043-0.032-0.086-0.063-0.129-0.095l-0.001,0c-0.005-0.003-0.009-0.006-0.014-0.01   c-0.014-0.01-0.027-0.02-0.041-0.029C797.479,30.039,797.554,30.093,797.628,30.148z"
   id="path335" />
	<path
   fill="none"
   stroke="#4B2975"
   stroke-width="0"
   stroke-linecap="round"
   stroke-linejoin="round"
   d="M763.539,414.004   c-1.422,0.52-2.846,1.031-4.273,1.533"
   id="path337" />
	<path
   fill="#4B2975"
   d="M751.92,418.032c0.077-0.024,0.155-0.049,0.231-0.074c1.674-0.55,3.342-1.113,5.007-1.687   c0.025-0.009,0.051-0.018,0.077-0.026c-1.794,0.617-3.591,1.224-5.395,1.813C751.867,418.05,751.894,418.041,751.92,418.032z"
   id="path339" />
	<path
   fill="#4B2975"
   d="M807.587,38.317c-0.073-0.067-0.149-0.13-0.223-0.197c0.191,0.173,0.383,0.348,0.574,0.522   c0.831,0.759,1.655,1.526,2.469,2.306c-0.881-0.844-1.771-1.675-2.671-2.495C807.687,38.407,807.637,38.362,807.587,38.317z"
   id="path341" />
	<path
   fill="#4B2975"
   d="M794.907,28.207c0.029,0.02,0.059,0.041,0.088,0.061c-0.011-0.007-0.021-0.015-0.03-0.021   C794.946,28.233,794.927,28.219,794.907,28.207z"
   id="path343" />
	<path
   fill="#4B2975"
   d="M802.134,33.633c0.062,0.05,0.124,0.098,0.185,0.148c-0.002-0.002-0.005-0.004-0.007-0.006   c-0.261-0.212-0.524-0.42-0.786-0.63c-0.27-0.216-0.536-0.434-0.807-0.646C801.195,32.872,801.664,33.251,802.134,33.633z"
   id="path345" />
	<path
   fill="#4B2975"
   d="M785.772,405.023c0.135-0.06,0.27-0.12,0.404-0.18c2.041-0.909,4.073-1.837,6.096-2.785   c-2.175,1.019-4.359,2.015-6.555,2.989C785.735,405.04,785.753,405.031,785.772,405.023z"
   id="path347" />
	<path
   fill="#4B2975"
   d="M778.254,408.247c-0.511,0.213-1.021,0.426-1.533,0.637C777.233,408.673,777.742,408.46,778.254,408.247z"
   id="path349" />
	<path
   fill="#4B2975"
   d="M764.952,413.497c1.261-0.467,2.515-0.949,3.77-1.43c0.207-0.08,0.415-0.158,0.622-0.238   c0.07-0.027,0.14-0.057,0.21-0.084c-1.53,0.591-3.063,1.175-4.601,1.744C764.952,413.492,764.952,413.494,764.952,413.497z"
   id="path351" />
	<path
   fill="#4B2975"
   d="M760.121,13.823c0.003,0.001,0.006,0.001,0.009,0.001c0.009,0.001,0.018,0.002,0.026,0.003   c-0.05-0.008-0.099-0.017-0.147-0.024c0.028,0.004,0.056,0.01,0.084,0.014C760.103,13.82,760.112,13.822,760.121,13.823z"
   id="path353" />
	<path
   fill="#4B2975"
   d="M780.865,20.019c0.345,0.165,0.689,0.332,1.031,0.501c-0.012-0.006-0.024-0.013-0.037-0.019   c-0.08-0.04-0.161-0.078-0.242-0.118c-0.231-0.113-0.463-0.227-0.695-0.338C780.903,20.037,780.883,20.028,780.865,20.019z"
   id="path355" />
	<path
   fill="#4B2975"
   d="M793.758,27.418c-0.005-0.004-0.011-0.008-0.017-0.012c-0.26-0.174-0.521-0.345-0.781-0.516   c-0.046-0.029-0.091-0.06-0.136-0.089C793.136,27.007,793.449,27.21,793.758,27.418z"
   id="path357" />
	<path
   fill="none"
   stroke="#4B2975"
   stroke-width="0"
   stroke-linecap="round"
   stroke-linejoin="round"
   d="M791.101,25.688   c-0.391-0.246-0.782-0.493-1.176-0.735"
   id="path359" />
	<path
   fill="#4B2975"
   d="M778.833,19.075c-0.079-0.036-0.159-0.072-0.238-0.108c-0.192-0.087-0.384-0.176-0.578-0.261   c-0.006-0.002-0.012-0.005-0.018-0.007l0,0C778.279,18.822,778.555,18.949,778.833,19.075z"
   id="path361" />
	<path
   fill="#4B2975"
   d="M797.391,29.974c-0.035-0.026-0.072-0.051-0.107-0.077c0.04,0.029,0.081,0.057,0.121,0.086   C797.4,29.981,797.396,29.978,797.391,29.974z"
   id="path363" />
	<path
   fill="#4B2975"
   d="M733.591,423.51c0.347-0.094,0.694-0.184,1.04-0.278c0.866-0.237,1.73-0.48,2.596-0.725   c-1.707,0.48-3.421,0.937-5.134,1.393C732.591,423.766,733.093,423.644,733.591,423.51z"
   id="path365" />
	<path
   fill="#4B2975"
   d="M724.892,425.758c0.495-0.122,0.989-0.248,1.483-0.371c0.598-0.149,1.192-0.313,1.789-0.466   c-1.41,0.359-2.821,0.72-4.235,1.063C724.249,425.905,724.572,425.836,724.892,425.758z"
   id="path367" />
	<path
   fill="#4B2975"
   d="M709.3,429.228c2.147-0.431,4.291-0.879,6.431-1.348c0.362-0.079,0.726-0.153,1.088-0.233   c1.245-0.276,2.484-0.582,3.727-0.872c-3.737,0.869-7.483,1.696-11.244,2.451C709.301,429.227,709.301,429.227,709.3,429.228z"
   id="path369" />
	<path
   fill="#4B2975"
   d="M783.769,21.472c0.133,0.069,0.266,0.138,0.398,0.207c-0.122-0.063-0.244-0.127-0.365-0.19   C783.791,21.484,783.78,21.478,783.769,21.472z"
   id="path371" />
	<path
   fill="#48C675"
   d="M674.178,25.6v0.008c8.612-2.791,17.321-5.231,26.134-7.224C691.5,20.378,682.79,22.809,674.178,25.6z"
   id="path373" />
	<path
   fill="#48C675"
   d="M619.228,434.785c0.076,0.011,0.152,0.019,0.229,0.029c0.542,0.076,1.087,0.142,1.631,0.212   c0.5,0.063,0.999,0.134,1.5,0.192C621.464,435.087,620.344,434.943,619.228,434.785z"
   id="path375" />
	<path
   fill="#48C675"
   d="M709.179,429.252c10.711-33.572,17.883-65.093,23.341-95.41h-2.342l-17.082-29.625l-0.005-0.008   l-2.254-3.909c-4.505,11.155-9.604,22.405-15.37,33.743c-19.301,37.952-38.325,63.989-72.803,101.184   c0.101,0.012,0.201,0.021,0.302,0.032c0.58,0.066,1.161,0.125,1.743,0.185c0.596,0.062,1.191,0.121,1.789,0.176   c0.597,0.054,1.194,0.104,1.792,0.15c0.585,0.046,1.17,0.09,1.756,0.13c0.605,0.041,1.212,0.08,1.818,0.115   c0.583,0.033,1.167,0.063,1.751,0.09c0.605,0.028,1.212,0.058,1.818,0.08c0.593,0.022,1.186,0.038,1.778,0.055   c0.599,0.017,1.198,0.035,1.797,0.047c0.621,0.012,1.243,0.015,1.864,0.021c0.823,0.008,1.646,0.013,2.471,0.011   c0.88-0.002,1.76-0.005,2.64-0.017c0.58-0.009,1.16-0.024,1.74-0.036c0.618-0.014,1.237-0.025,1.855-0.043   c0.587-0.017,1.173-0.039,1.76-0.061c0.614-0.021,1.228-0.043,1.841-0.069c0.58-0.024,1.159-0.053,1.738-0.081   c0.619-0.03,1.239-0.062,1.857-0.096c0.57-0.031,1.14-0.064,1.709-0.099c0.633-0.038,1.265-0.078,1.896-0.12   c0.547-0.037,1.093-0.073,1.639-0.112c0.673-0.048,1.344-0.099,2.014-0.15c0.502-0.038,1.004-0.075,1.504-0.116   c0.754-0.061,1.504-0.125,2.255-0.189c0.415-0.036,0.832-0.07,1.247-0.107c1.16-0.104,2.317-0.21,3.47-0.321   c2.686-0.259,5.349-0.533,7.979-0.819c2.286-0.278,4.568-0.582,6.85-0.903c0.436-0.062,0.871-0.128,1.306-0.19   c0.098-0.014,0.194-0.03,0.291-0.044c1.829-0.266,3.656-0.539,5.482-0.832c0.445-0.071,0.892-0.146,1.337-0.219   c1.993-0.326,3.983-0.665,5.972-1.023c0.257-0.046,0.514-0.093,0.771-0.14c2.247-0.409,4.491-0.836,6.73-1.285   c0.024-0.005,0.05-0.009,0.074-0.014c0,0,0,0,0-0.001c0.001-0.001,0.001-0.001,0.001-0.002   C709.26,429.234,709.22,429.244,709.179,429.252z"
   id="path377" />
	<path
   fill="#48C675"
   d="M735.927,132.848h24.913h0.001h1.426c3.788-43.011,0.603-80.899-2.283-119.042   c-1.431-0.216-2.866-0.405-4.306-0.559c-0.008,0-0.016-0.002-0.023-0.003c-0.034-0.004-0.069-0.007-0.104-0.011   c-0.01-0.001-0.02-0.001-0.03-0.002c-1.141-0.12-2.284-0.206-3.429-0.29c-0.331-0.024-0.66-0.063-0.991-0.083   c-0.01,0-0.02-0.001-0.029-0.002c-0.076-0.005-0.152-0.01-0.229-0.015c-0.009,0-0.018,0-0.026-0.001   c-1.251-0.077-2.502-0.125-3.753-0.162c-0.198-0.006-0.396-0.021-0.593-0.025c-0.016,0-0.031-0.001-0.046-0.002   c-0.077-0.002-0.153-0.005-0.23-0.006c-0.01,0-0.02,0-0.029,0c-1.23-0.027-2.459-0.027-3.688-0.02   c-0.255,0.002-0.51-0.007-0.765-0.004c-0.032,0-0.064-0.001-0.097,0h-0.001c-14.013,0.674-27.767,2.706-41.283,5.762   c13.803,23.668,23.715,50.828,29.84,78.786C732.715,108.781,734.647,120.688,735.927,132.848z"
   id="path379" />
	<path
   fill="#48C675"
   d="M760.121,13.823c0.041,0.006,0.082,0.015,0.123,0.021c0,0,0-0.001,0-0.001s0,0,0-0.001   c-0.001-0.001-0.001-0.002-0.001-0.003c-0.028-0.004-0.058-0.007-0.087-0.011c-0.009-0.001-0.018-0.002-0.026-0.003   C760.127,13.824,760.124,13.824,760.121,13.823z"
   id="path381" />
	<path
   fill="none"
   stroke="#1DA9CA"
   stroke-width="0"
   stroke-linecap="round"
   stroke-linejoin="round"
   d="M743.932,420.547   c0.029-0.01,0.06-0.018,0.089-0.026"
   id="path383" />
	<path
   fill="#1DA9CA"
   d="M764.951,413.49c2.31-26.971,3.797-53.759,3.217-79.648h-16.949H732.52   c-5.458,30.317-12.63,61.838-23.341,95.41c0.041-0.008,0.081-0.018,0.122-0.025c3.761-0.755,7.507-1.582,11.244-2.451   c1.128-0.263,2.258-0.52,3.384-0.792c1.414-0.343,2.825-0.703,4.235-1.063c1.312-0.334,2.621-0.673,3.929-1.021   c1.713-0.456,3.427-0.912,5.134-1.393c0.164-0.046,0.328-0.094,0.493-0.141c0.761-0.216,1.517-0.446,2.276-0.666   c1.274-0.37,2.551-0.735,3.822-1.119c0.038-0.012,0.076-0.023,0.113-0.034c0.354-0.107,0.708-0.216,1.061-0.323   c1.422-0.435,2.839-0.886,4.255-1.338c0.4-0.127,0.802-0.248,1.201-0.377c0.385-0.124,0.771-0.245,1.155-0.371   c0.079-0.025,0.158-0.054,0.237-0.079c1.804-0.59,3.601-1.196,5.395-1.813c0.414-0.143,0.83-0.282,1.244-0.427   c1.692-0.59,3.377-1.2,5.06-1.814c0.422-0.153,0.846-0.299,1.267-0.454c0.049-0.019,0.098-0.035,0.146-0.053   c0-0.003,0-0.005,0.001-0.008C764.952,413.49,764.952,413.49,764.951,413.49z"
   id="path385" />
	<path
   fill="none"
   stroke="#1DA9CA"
   stroke-width="0"
   stroke-linecap="round"
   stroke-linejoin="round"
   d="M792.824,26.801   c-0.13-0.085-0.259-0.171-0.389-0.256"
   id="path387" />
	
		<line
   fill="none"
   stroke="#1DA9CA"
   stroke-width="0"
   stroke-linecap="round"
   stroke-linejoin="round"
   x1="787.271"
   y1="23.377"
   x2="787.266"
   y2="23.374"
   id="line389" />
	<path
   fill="#1DA9CA"
   d="M759.984,13.805c2.886,38.143,6.071,76.032,2.283,119.042h36.854c6.272-21.668,9.18-44.147,10.523-66.738   c0.496-8.327,0.785-16.668,0.942-24.99c0,0,0,0,0,0v0c0,0,0-0.001,0-0.001c-0.048-0.046-0.096-0.09-0.144-0.136   c-0.012-0.011-0.024-0.022-0.036-0.034c-0.813-0.779-1.638-1.546-2.469-2.306c-0.191-0.174-0.383-0.349-0.574-0.522   c-0.533-0.481-1.075-0.951-1.614-1.424c-0.338-0.298-0.672-0.602-1.014-0.895c-0.027-0.024-0.055-0.048-0.082-0.072   c-0.004-0.003-0.008-0.006-0.012-0.01c-0.006-0.005-0.012-0.01-0.018-0.015c-0.108-0.093-0.221-0.184-0.33-0.277   c-0.448-0.38-0.898-0.758-1.352-1.132c-0.011-0.009-0.021-0.019-0.032-0.027c-0.188-0.156-0.377-0.311-0.566-0.465   c-0.009-0.007-0.018-0.014-0.026-0.021c-0.061-0.05-0.123-0.099-0.185-0.148c-0.47-0.381-0.939-0.761-1.415-1.135   c-0.006-0.005-0.013-0.011-0.02-0.016c-0.195-0.154-0.393-0.305-0.589-0.458c0.005,0.004,0.011,0.008,0.016,0.012   c-0.005-0.004-0.011-0.008-0.016-0.012c-0.02-0.016-0.04-0.031-0.06-0.046c-0.018-0.013-0.035-0.026-0.052-0.04   c-0.704-0.546-1.417-1.081-2.133-1.61c-0.08-0.059-0.158-0.121-0.238-0.18c-0.074-0.055-0.149-0.109-0.224-0.164   c-0.04-0.029-0.081-0.057-0.121-0.086c-0.756-0.552-1.518-1.096-2.288-1.63c0.771,0.534,1.532,1.078,2.288,1.63   c-0.295-0.215-0.596-0.423-0.893-0.636c-0.464-0.333-0.926-0.669-1.396-0.995c-0.029-0.02-0.059-0.041-0.088-0.061   c-0.019-0.013-0.037-0.026-0.057-0.04c-0.356-0.247-0.713-0.494-1.072-0.736c-0.007-0.004-0.014-0.009-0.021-0.013   c-0.309-0.208-0.622-0.411-0.934-0.617c-0.126-0.083-0.25-0.166-0.377-0.248c-0.004-0.002-0.008-0.005-0.012-0.008   c-0.006-0.004-0.011-0.007-0.017-0.011c-0.415-0.271-0.833-0.538-1.252-0.803c-0.012-0.007-0.022-0.014-0.034-0.021   c-0.41-0.259-0.82-0.518-1.234-0.771c-0.007-0.004-0.014-0.009-0.021-0.014c-0.515-0.315-1.035-0.622-1.556-0.929   c-0.029-0.017-0.059-0.035-0.089-0.052c-0.257-0.151-0.512-0.306-0.77-0.455c-0.059-0.034-0.115-0.069-0.174-0.102   c-0.006-0.003-0.012-0.007-0.018-0.01c0,0,0,0-0.001,0c-0.839-0.481-1.688-0.949-2.545-1.407c-0.008-0.004-0.016-0.008-0.023-0.012   c-0.177-0.095-0.357-0.185-0.535-0.279c-0.133-0.069-0.266-0.138-0.398-0.207c-0.022-0.012-0.046-0.023-0.068-0.036   c-0.586-0.305-1.174-0.605-1.768-0.899c-0.013-0.006-0.024-0.012-0.037-0.018c-0.342-0.169-0.687-0.336-1.031-0.501   c-0.014-0.007-0.027-0.014-0.042-0.021c-0.606-0.291-1.219-0.574-1.834-0.854c-0.021-0.009-0.043-0.019-0.064-0.029   c-0.03-0.014-0.061-0.027-0.091-0.041c-0.278-0.126-0.555-0.253-0.834-0.376c-0.011-0.004-0.021-0.009-0.03-0.014   c-0.875-0.384-1.756-0.757-2.646-1.117c-0.015-0.006-0.028-0.012-0.043-0.018c0.047,0.021,0.094,0.041,0.142,0.06   c-0.106-0.043-0.211-0.09-0.317-0.132c-0.021-0.007-0.041-0.014-0.062-0.021c-1.146-0.398-2.3-0.764-3.461-1.107   c-0.019-0.006-0.037-0.013-0.056-0.018c-0.067-0.02-0.133-0.041-0.2-0.06c-0.009-0.003-0.018-0.005-0.026-0.007   c-1.153-0.336-2.313-0.642-3.479-0.927c-0.015-0.003-0.028-0.008-0.043-0.011c-0.085-0.021-0.17-0.042-0.255-0.063   c-0.01-0.002-0.02-0.004-0.029-0.007c-1.178-0.282-2.361-0.539-3.55-0.771c-0.012-0.002-0.023-0.005-0.035-0.008   c-0.058-0.011-0.114-0.022-0.172-0.033c-0.012-0.002-0.024-0.004-0.036-0.006c-1.147-0.221-2.3-0.417-3.455-0.595   c-0.041-0.006-0.082-0.015-0.123-0.021c-0.01-0.001-0.019-0.003-0.028-0.005c-0.028-0.004-0.056-0.01-0.084-0.014   c-0.009-0.001-0.017-0.003-0.025-0.004v0c0,0,0,0,0,0C759.984,13.802,759.984,13.804,759.984,13.805z"
   id="path391" />
	<path
   fill="none"
   stroke="#1DA9CA"
   stroke-width="0"
   stroke-linecap="round"
   stroke-linejoin="round"
   d="M797.391,29.974   c-0.035-0.026-0.072-0.051-0.107-0.077"
   id="path393" />
	<path
   fill="none"
   stroke="#1DA9CA"
   stroke-width="0"
   stroke-linecap="round"
   stroke-linejoin="round"
   d="M794.995,28.268   c0.771,0.534,1.532,1.078,2.288,1.63"
   id="path395" />
	<path
   fill="#FFD409"
   d="M512.175,302.813c-0.03-0.104-0.061-0.21-0.09-0.314c0.062,0.219,0.124,0.438,0.186,0.655   c0.005,0.019,0.01,0.036,0.015,0.054C512.248,303.076,512.211,302.945,512.175,302.813z"
   id="path397" />
	<path
   fill="#FFD409"
   d="M511.682,301.055c0.016,0.056,0.031,0.111,0.046,0.167c0.105,0.379,0.21,0.758,0.317,1.137   c-0.043-0.153-0.084-0.306-0.127-0.459C511.84,301.619,511.76,301.337,511.682,301.055z"
   id="path399" />
	<path
   fill="#FFD409"
   d="M514.06,309.406c-0.016-0.056-0.034-0.111-0.05-0.167c0.199,0.683,0.399,1.367,0.601,2.051   c0.02,0.067,0.039,0.134,0.059,0.201C514.465,310.796,514.263,310.1,514.06,309.406z"
   id="path401" />
	<path
   fill="#FFD409"
   d="M526.495,346.225c0.028,0.071,0.059,0.143,0.087,0.214c0.195,0.488,0.396,0.974,0.594,1.46   c0.337,0.831,0.675,1.662,1.02,2.488c0.224,0.538,0.454,1.073,0.681,1.609c0.329,0.773,0.659,1.547,0.994,2.317   c0.241,0.552,0.486,1.103,0.73,1.652c0.334,0.752,0.671,1.502,1.012,2.249c0.252,0.553,0.506,1.105,0.763,1.656   c0.347,0.744,0.697,1.486,1.051,2.227c0.26,0.543,0.52,1.086,0.783,1.626c0.368,0.755,0.743,1.505,1.119,2.254   c0.259,0.517,0.516,1.034,0.778,1.548c0.412,0.804,0.832,1.602,1.253,2.399c0.239,0.452,0.474,0.907,0.716,1.357   c0.592,1.103,1.195,2.198,1.808,3.288c0.113,0.201,0.226,0.403,0.34,0.605c0.649,1.146,1.311,2.286,1.982,3.418   c0.259,0.435,0.525,0.864,0.787,1.297c0.465,0.769,0.931,1.537,1.407,2.299c0.309,0.493,0.625,0.982,0.938,1.473   c0.444,0.694,0.89,1.388,1.344,2.076c0.333,0.506,0.673,1.009,1.012,1.511c0.45,0.667,0.904,1.332,1.364,1.993   c0.349,0.501,0.701,1.001,1.056,1.499c0.469,0.657,0.942,1.31,1.421,1.96c0.357,0.486,0.716,0.973,1.079,1.455   c0.501,0.666,1.012,1.325,1.524,1.983c0.088,0.113,0.177,0.227,0.266,0.34C542.584,381.383,533.672,364.218,526.495,346.225z"
   id="path403" />
	<path
   fill="#FFD409"
   d="M695.467,334.043c5.766-11.338,10.865-22.588,15.37-33.743l-12.175-21.112l-2.967-5.146   c-6.247,10.675-13.476,20.97-21.518,30.889v24.639v4.273h-2.547H647.49c-3.064,2.951-6.192,5.865-9.385,8.738   c-15.483,13.933-46.335,42.68-77.425,61.419c0.506,0.564,1.001,1.136,1.516,1.692c1.249,1.353,2.535,2.678,3.843,3.986   c0.025,0.025,0.051,0.051,0.076,0.076c0.821,0.821,1.655,1.633,2.501,2.437c0.138,0.131,0.272,0.264,0.411,0.395   c0.928,0.873,1.865,1.738,2.822,2.59c0.925,0.771,1.862,1.515,2.811,2.234c0.001,0.001,0.003,0.002,0.004,0.003   c0.106,0.081,0.215,0.156,0.323,0.233c0.25,0.182,0.5,0.36,0.749,0.543c0.057,0.042,0.114,0.082,0.171,0.124   c0.542,0.395,1.079,0.798,1.628,1.177c0.002,0.001,0.005,0.003,0.007,0.004c0.415,0.287,0.838,0.555,1.258,0.83   c0.051,0.033,0.101,0.066,0.151,0.1c0.056,0.036,0.11,0.072,0.166,0.109c0.451,0.296,0.897,0.603,1.354,0.888   c0.004,0.003,0.007,0.004,0.01,0.007c0.523,0.326,1.055,0.633,1.582,0.946c0.016,0.009,0.03,0.019,0.046,0.027   c0.058,0.034,0.115,0.069,0.173,0.104c0.395,0.233,0.784,0.478,1.182,0.703c0.005,0.003,0.01,0.005,0.015,0.008   c0.169,0.097,0.342,0.185,0.513,0.278c0.43,0.235,0.859,0.47,1.291,0.701c0.057,0.029,0.112,0.061,0.168,0.091   c0.354,0.188,0.705,0.388,1.063,0.571c0.005,0.003,0.011,0.006,0.017,0.009c0.247,0.127,0.499,0.244,0.749,0.367   c0.407,0.199,0.813,0.401,1.222,0.599c0.057,0.027,0.112,0.057,0.169,0.084c0.313,0.149,0.624,0.309,0.938,0.455   c0.008,0.004,0.015,0.007,0.021,0.01c0.709,0.329,1.426,0.638,2.142,0.947c0.056,0.023,0.109,0.049,0.164,0.072   c0.272,0.117,0.542,0.242,0.815,0.356c0.009,0.003,0.017,0.006,0.024,0.009c0.766,0.32,1.538,0.62,2.312,0.918   c0.053,0.021,0.105,0.043,0.158,0.063c0.231,0.089,0.46,0.184,0.691,0.271c0.009,0.003,0.019,0.006,0.027,0.01   c0.821,0.307,1.648,0.595,2.478,0.88c0.053,0.018,0.104,0.037,0.157,0.056c0.188,0.063,0.373,0.133,0.562,0.195   c0.011,0.004,0.021,0.007,0.032,0.01c0.873,0.292,1.754,0.565,2.636,0.833c0.051,0.016,0.101,0.033,0.151,0.048   c0.148,0.045,0.295,0.094,0.443,0.138c0.012,0.003,0.023,0.006,0.035,0.01c0.146,0.043,0.295,0.081,0.441,0.123   c0.779,0.227,1.562,0.446,2.348,0.656c0.051,0.013,0.101,0.028,0.151,0.042c0.106,0.028,0.212,0.059,0.318,0.086   c0.013,0.004,0.026,0.007,0.04,0.01c0.979,0.256,1.963,0.495,2.95,0.724c0.047,0.011,0.094,0.023,0.142,0.035   c0.064,0.015,0.128,0.03,0.191,0.045c0.015,0.004,0.028,0.006,0.042,0.009c0.465,0.106,0.934,0.198,1.4,0.299   c0.565,0.121,1.128,0.248,1.695,0.361c0.045,0.009,0.089,0.02,0.134,0.028c0.028,0.006,0.056,0.012,0.084,0.018   c0.015,0.003,0.029,0.005,0.044,0.008c0.057,0.011,0.113,0.021,0.17,0.031c1.016,0.199,2.034,0.386,3.057,0.56   c0.053,0.009,0.104,0.019,0.157,0.027c0.025,0.004,0.052,0.008,0.077,0.012c0.519,0.087,1.04,0.162,1.56,0.242   c0.569,0.089,1.138,0.185,1.709,0.266c0.021,0.003,0.041,0.006,0.062,0.009c1.116,0.158,2.236,0.302,3.359,0.434   c0.025,0.003,0.051,0.007,0.076,0.01c0.001-0.001,0.001-0.001,0.001-0.002C657.142,398.032,676.166,371.995,695.467,334.043z"
   id="path405" />
	<path
   fill="#FFD409"
   d="M520.338,329.438c0.513,1.516,1.036,3.027,1.569,4.537c0.07,0.199,0.138,0.4,0.208,0.6   C521.509,332.868,520.919,331.155,520.338,329.438z"
   id="path407" />
	<path
   fill="#FFD409"
   d="M518.302,323.262c0.565,1.757,1.142,3.511,1.73,5.262C519.444,326.773,518.867,325.019,518.302,323.262z"
   id="path409" />
	<path
   fill="#FFD409"
   d="M516.191,316.55c0.13,0.426,0.265,0.851,0.396,1.276c0.33,1.07,0.66,2.14,0.998,3.209   c0.099,0.313,0.202,0.624,0.301,0.938C517.311,320.167,516.744,318.359,516.191,316.55z"
   id="path411" />
	<path
   fill="#FFD409"
   d="M522.631,336.009c-0.037-0.102-0.074-0.204-0.111-0.307c-0.089-0.248-0.181-0.495-0.27-0.743   c0.4,1.124,0.808,2.245,1.22,3.365C523.187,337.553,522.909,336.781,522.631,336.009z"
   id="path413" />
	<path
   fill="#FFD409"
   d="M694.054,84.942c12.344,22.657,20.179,44.375,24.185,65.163l13.182-17.257h4.33h0.002h0.175   c-1.28-12.16-3.212-24.066-5.757-35.682c-6.125-27.958-16.037-55.117-29.84-78.786c-0.006,0.001-0.013,0.003-0.019,0.004   c-8.813,1.993-17.521,4.434-26.134,7.224v28.548C681.062,63.719,688.548,74.837,694.054,84.942z"
   id="path415" />
	<path
   fill="#FDAA28"
   d="M514.06,309.406c0.203,0.694,0.405,1.39,0.61,2.085c0.013,0.045,0.026,0.09,0.04,0.135   c0.098,0.33,0.196,0.66,0.294,0.989c0.025,0.085,0.051,0.169,0.076,0.254c0.061,0.204,0.123,0.408,0.184,0.612   c0.21,0.702,0.42,1.405,0.633,2.107c0.011,0.035,0.021,0.07,0.031,0.104c0.05,0.165,0.101,0.329,0.151,0.493   c0.037,0.121,0.075,0.242,0.112,0.363c0.553,1.81,1.12,3.617,1.695,5.423c0.042,0.134,0.083,0.268,0.125,0.401   C516.634,318.061,515.322,313.733,514.06,309.406z"
   id="path417" />
	<path
   fill="#FDAA28"
   d="M512.175,302.813c0.037,0.132,0.073,0.263,0.11,0.395c0.031,0.109,0.061,0.219,0.092,0.328   c0.122,0.433,0.244,0.865,0.367,1.299c0.02,0.069,0.04,0.139,0.06,0.207c0.22,0.775,0.442,1.551,0.666,2.326   c0.019,0.065,0.037,0.131,0.056,0.196c0.117,0.404,0.234,0.809,0.352,1.213c0.013,0.044,0.026,0.089,0.039,0.133   C513.324,306.877,512.745,304.844,512.175,302.813z"
   id="path419" />
	<path
   fill="#FDAA28"
   d="M520.325,329.403c0.004,0.012,0.008,0.023,0.012,0.035c0.582,1.717,1.171,3.43,1.777,5.137   c0.022,0.062,0.042,0.123,0.064,0.185c0.016,0.044,0.031,0.087,0.046,0.131c0.008,0.022,0.017,0.045,0.024,0.068   c0.089,0.248,0.181,0.495,0.27,0.743C521.769,333.609,521.039,331.51,520.325,329.403z"
   id="path421" />
	<path
   fill="#FDAA28"
   d="M511.918,301.9c-0.55-1.966-1.092-3.931-1.625-5.891c0.072,0.267,0.144,0.532,0.217,0.799   c0.021,0.08,0.044,0.16,0.066,0.24c0.178,0.652,0.359,1.306,0.539,1.959c0.055,0.197,0.108,0.395,0.163,0.592   c0.113,0.41,0.226,0.82,0.34,1.23c0.021,0.075,0.042,0.15,0.063,0.226C511.76,301.337,511.84,301.619,511.918,301.9z"
   id="path423" />
	<path
   fill="#FDAA28"
   d="M638.105,342.58c3.192-2.873,6.32-5.787,9.385-8.738h-13.005h-63.801v-8.146   c-14.512,6.408-30.108,12.365-45.682,16.706c-0.813-2.121-1.601-4.254-2.371-6.394c0.278,0.772,0.556,1.545,0.839,2.315   c0.016,0.041,0.03,0.083,0.045,0.125c0.036,0.098,0.072,0.196,0.108,0.294c0.01,0.027,0.021,0.055,0.031,0.082   c0.192,0.521,0.391,1.04,0.587,1.561c0.223,0.595,0.443,1.19,0.67,1.783c0.012,0.031,0.023,0.063,0.035,0.094   c0.031,0.082,0.063,0.164,0.095,0.246c0.013,0.034,0.026,0.067,0.039,0.101c0.442,1.15,0.89,2.299,1.345,3.443   c0.023,0.058,0.046,0.115,0.069,0.173c7.177,17.992,16.089,35.157,27.909,50.255c0.265,0.338,0.524,0.679,0.792,1.014   c0.573,0.72,1.159,1.431,1.746,2.142c0.311,0.374,0.614,0.754,0.929,1.126c0.061,0.071,0.118,0.146,0.179,0.217   c0.009,0.011,0.018,0.021,0.026,0.032c0.829,0.978,1.673,1.946,2.528,2.904c0.001,0.001,0.001,0.001,0.002,0.002   c0.009,0.01,0.017,0.02,0.025,0.029c0.016,0.018,0.031,0.036,0.047,0.054c0,0,0.001,0,0.001-0.001   C591.77,385.26,622.621,356.512,638.105,342.58z"
   id="path425" />
	<path
   fill="#FDAA28"
   d="M508.42,289.051c0.066,0.248,0.134,0.498,0.2,0.747c0.288,1.078,0.576,2.157,0.867,3.239   c0.147,0.546,0.296,1.092,0.444,1.638c0.033,0.122,0.066,0.243,0.099,0.364C509.487,293.039,508.949,291.041,508.42,289.051z"
   id="path427" />
	<path
   fill="#FDAA28"
   d="M694.054,84.942c-5.506-10.105-12.992-21.223-19.876-30.785v25.017V116.5   c14.52,19.572,23.436,38.052,27.331,55.508l11.163-14.615l0.001-0.002l5.565-7.287C714.233,129.317,706.398,107.599,694.054,84.942   z"
   id="path429" />
	<path
   fill="#FDAA28"
   d="M682.074,250.419c-2.441,3.094-5.071,6.145-7.896,9.15v34.815v10.545   c8.042-9.919,15.271-20.214,21.518-30.889l-4.406-7.641L682.074,250.419z"
   id="path431" />
	<path
   fill="#F86F05"
   d="M500.028,251.587c0.086,0.433,0.171,0.865,0.258,1.298c0.246,1.222,0.496,2.441,0.75,3.66   c0.009,0.044,0.019,0.089,0.028,0.133C500.711,254.984,500.366,253.286,500.028,251.587z"
   id="path433" />
	<path
   fill="#F86F05"
   d="M498.352,242.778c0.091,0.508,0.19,1.014,0.283,1.521c0.143,0.779,0.288,1.558,0.435,2.336   c0.189,1.004,0.377,2.007,0.573,3.009C499.197,247.359,498.763,245.071,498.352,242.778z"
   id="path435" />
	<path
   fill="#F86F05"
   d="M501.463,258.581c0.035,0.168,0.069,0.335,0.105,0.503c0.25,1.173,0.502,2.343,0.757,3.513   c0.134,0.616,0.268,1.232,0.404,1.848C502.3,262.495,501.878,260.54,501.463,258.581z"
   id="path437" />
	<path
   fill="#F86F05"
   d="M522.52,335.702c0.037,0.103,0.075,0.205,0.111,0.307c0.77,2.14,1.558,4.272,2.371,6.394   c15.573-4.341,31.17-10.298,45.682-16.706v-3.63v-58.388c-19.518,4.024-41.845,6.588-66.181,8.648   c-0.541-2.357-1.076-4.725-1.602-7.1c0.002,0.009,0.004,0.018,0.006,0.026c0.243,1.098,0.489,2.19,0.735,3.284   c0.215,0.955,0.43,1.911,0.647,2.862c0.216,0.943,0.433,1.882,0.65,2.822c0.256,1.109,0.512,2.222,0.77,3.326   c0.098,0.422,0.197,0.84,0.296,1.261c0.804,3.436,1.613,6.853,2.416,10.241c0.529,1.99,1.067,3.988,1.609,5.988   c0.019,0.07,0.038,0.141,0.057,0.21c0.069,0.254,0.137,0.507,0.207,0.761c0.534,1.96,1.076,3.925,1.625,5.891   c0.043,0.153,0.084,0.306,0.127,0.459c0.013,0.046,0.026,0.093,0.039,0.14c0.03,0.104,0.061,0.21,0.09,0.314   c0.57,2.031,1.149,4.063,1.741,6.097c0.01,0.034,0.019,0.068,0.029,0.103c0.014,0.048,0.027,0.095,0.041,0.143   c0.008,0.027,0.017,0.056,0.025,0.084c0.016,0.056,0.034,0.111,0.05,0.167c1.262,4.327,2.574,8.655,3.952,12.968   c0.021,0.067,0.043,0.136,0.064,0.203c0.066,0.207,0.137,0.412,0.204,0.619c0.007,0.021,0.015,0.044,0.021,0.066   c0.566,1.757,1.142,3.511,1.73,5.262c0.012,0.035,0.023,0.07,0.035,0.104c0.035,0.104,0.067,0.207,0.102,0.31   c0.046,0.138,0.093,0.274,0.139,0.412c0.006,0.018,0.012,0.035,0.018,0.053C521.039,331.51,521.769,333.609,522.52,335.702z"
   id="path439" />
	<path
   fill="#F86F05"
   d="M570.684,88.987V73.203c-5.456,2.932-10.87,6.073-16.15,9.438c1.335,0,2.67-0.002,4.021,0.019   C562.892,84.9,566.921,86.999,570.684,88.987z"
   id="path441" />
	<path
   fill="#F86F05"
   d="M543.105,90.488c2.408-1.794,4.866-3.527,7.363-5.204C547.97,86.961,545.512,88.694,543.105,90.488z"
   id="path443" />
	<path
   fill="#F86F05"
   d="M519.258,112.934c-0.833,1.026-1.641,2.074-2.436,3.132c0.827-1.099,1.668-2.187,2.537-3.252   C519.325,112.854,519.29,112.893,519.258,112.934z"
   id="path445" />
	<path
   fill="#F86F05"
   d="M680.09,246.978l-5.912-10.252v21.277v1.565c2.825-3.006,5.455-6.057,7.896-9.15L680.09,246.978z"
   id="path447" />
	<path
   fill="#F86F05"
   d="M674.178,137.591v30.874v39.325l9.861-12.909l12.462-16.315l0.001-0.002l5.007-6.555   c-3.896-17.456-12.812-35.937-27.331-55.508V137.591z"
   id="path449" />
	<path
   fill="#D2102B"
   d="M504.503,272.327c24.336-2.061,46.664-4.624,66.181-8.648v-9.407v-0.002V112.488V88.987   c-3.763-1.987-7.792-4.087-12.129-6.326c-1.352-0.021-2.687-0.019-4.021-0.019c-0.009,0-0.018,0-0.026,0   c-1.285,0.819-2.562,1.653-3.829,2.501c-0.07,0.047-0.14,0.095-0.21,0.142c-2.497,1.676-4.955,3.41-7.363,5.204   c-0.112,0.084-0.225,0.169-0.338,0.254c-1.174,0.879-2.337,1.771-3.484,2.68c-0.006,0.005-0.013,0.01-0.019,0.015   c-1.149,0.912-2.283,1.84-3.404,2.783c-0.15,0.127-0.3,0.255-0.45,0.382c-1.072,0.909-2.133,1.83-3.176,2.769   c-0.029,0.027-0.06,0.053-0.09,0.08c-1.061,0.957-2.103,1.933-3.13,2.921c-0.177,0.17-0.353,0.342-0.528,0.513   c-0.971,0.945-1.929,1.901-2.867,2.876c-0.045,0.047-0.092,0.092-0.137,0.139c-0.967,1.008-1.912,2.036-2.841,3.077   c-0.189,0.212-0.376,0.425-0.564,0.638c-0.873,0.993-1.733,1.997-2.569,3.02c-0.049,0.06-0.101,0.119-0.149,0.179   c-0.868,1.066-1.71,2.153-2.537,3.252c-0.188,0.251-0.375,0.504-0.562,0.757c-0.779,1.058-1.544,2.126-2.283,3.216   c-0.041,0.061-0.084,0.119-0.125,0.18c-0.765,1.133-1.5,2.289-2.219,3.458c-0.175,0.284-0.347,0.57-0.52,0.856   c-0.688,1.145-1.36,2.302-2.001,3.482c-0.023,0.043-0.049,0.085-0.073,0.129c-0.656,1.212-1.278,2.448-1.883,3.697   c-0.149,0.309-0.297,0.619-0.443,0.929c-0.595,1.266-1.174,2.543-1.714,3.847c-0.634,1.439-1.233,2.885-1.807,4.335   c-0.19,0.479-0.363,0.961-0.546,1.442c-0.373,0.975-0.742,1.95-1.088,2.929c-0.202,0.57-0.39,1.143-0.583,1.715   c-0.302,0.895-0.601,1.791-0.882,2.688c-0.19,0.607-0.372,1.216-0.553,1.825c-0.259,0.871-0.511,1.743-0.751,2.617   c0,0,0,0.001,0,0.001c-0.157,0.571-0.309,1.142-0.458,1.714c-0.013,0.049-0.026,0.097-0.039,0.146c0,0,0,0.001,0,0.002   c-0.227,0.874-0.442,1.749-0.65,2.625c0,0.001,0,0.001,0,0.002c-0.146,0.616-0.293,1.232-0.431,1.85c0,0,0,0.001,0,0.001   c-0.201,0.901-0.388,1.805-0.57,2.708c0,0.002-0.001,0.005-0.001,0.007c-0.002,0.013-0.005,0.026-0.008,0.039   c-0.117,0.576-0.238,1.15-0.347,1.728c0,0.001,0,0.002,0,0.003c-0.186,0.984-0.353,1.97-0.518,2.957   c-0.001,0.005-0.002,0.01-0.003,0.015c-0.085,0.509-0.179,1.016-0.259,1.526c0,0.001,0,0.002,0,0.003   c-0.228,1.455-0.435,2.911-0.619,4.371c-0.002,0.018-0.005,0.036-0.007,0.053c-0.026,0.208-0.045,0.416-0.071,0.624   c-0.002,0.018-0.004,0.036-0.006,0.054c-0.157,1.292-0.301,2.586-0.426,3.882c0,0.001,0,0.003,0,0.005   c-0.004,0.048-0.008,0.096-0.012,0.144c-0.049,0.527-0.089,1.056-0.134,1.583c-0.001,0.01-0.002,0.021-0.003,0.03   c-0.079,0.924-0.157,1.847-0.22,2.772c0,0.002,0,0.005,0,0.007c-0.045,0.657-0.079,1.315-0.116,1.973c0,0.008,0,0.015-0.001,0.023   c-0.048,0.846-0.094,1.692-0.129,2.539c0,0.004,0,0.008,0,0.013c-0.007,0.163-0.011,0.326-0.017,0.488   c-0.02,0.532-0.039,1.063-0.055,1.596c0,0.008,0,0.016-0.001,0.023c-0.024,0.81-0.044,1.619-0.058,2.43c0,0.007,0,0.015,0,0.021   c-0.006,0.378-0.008,0.756-0.012,1.134c-0.004,0.336-0.01,0.673-0.011,1.01c0,0.008,0,0.016,0,0.024   c-0.004,0.79-0.001,1.58,0.004,2.37c0,0.011,0,0.022,0,0.033c0.001,0.248,0.006,0.497,0.008,0.745   c0.004,0.478,0.007,0.956,0.016,1.434c0,0.008,0,0.015,0,0.022c0.014,0.772,0.037,1.546,0.06,2.319   c0,0.019,0.001,0.039,0.001,0.058c0.022,0.734,0.042,1.468,0.071,2.203c0,0.008,0,0.016,0.001,0.024   c0.03,0.741,0.07,1.482,0.108,2.224c0.002,0.042,0.004,0.084,0.006,0.126c0.038,0.741,0.071,1.482,0.116,2.224   c0,0.009,0.001,0.018,0.001,0.027c0.036,0.586,0.083,1.173,0.123,1.76c0.012,0.177,0.025,0.353,0.038,0.53   c0.111,1.568,0.237,3.137,0.379,4.707c0.014,0.155,0.027,0.31,0.042,0.465c0.042,0.449,0.077,0.898,0.121,1.348   c0.001,0.013,0.003,0.026,0.004,0.04c0.088,0.905,0.188,1.81,0.286,2.714c0.007,0.066,0.014,0.132,0.021,0.198   c0.058,0.526,0.111,1.052,0.171,1.578c0.002,0.017,0.004,0.034,0.006,0.051c0.105,0.92,0.219,1.839,0.333,2.758   c0.006,0.047,0.011,0.093,0.017,0.14c0.065,0.518,0.128,1.034,0.195,1.551c0.003,0.024,0.006,0.048,0.01,0.072   c0.011,0.087,0.024,0.174,0.035,0.261c0.113,0.857,0.229,1.714,0.348,2.57c0.005,0.04,0.011,0.08,0.016,0.12   c0.066,0.474,0.133,0.946,0.201,1.42c0.005,0.034,0.011,0.069,0.016,0.104c0.142,0.981,0.288,1.962,0.439,2.942   c0.005,0.037,0.011,0.074,0.017,0.111c0.061,0.396,0.123,0.79,0.185,1.186c0.009,0.054,0.018,0.107,0.026,0.161   c0.099,0.625,0.201,1.249,0.303,1.873c0.067,0.416,0.132,0.833,0.202,1.249c0.006,0.035,0.012,0.071,0.018,0.107   c0.041,0.243,0.083,0.486,0.124,0.729c0.015,0.091,0.031,0.181,0.046,0.271c0.197,1.157,0.395,2.313,0.602,3.47   c0.011,0.063,0.023,0.125,0.034,0.188c0.411,2.293,0.845,4.581,1.291,6.866c0.082,0.42,0.164,0.84,0.247,1.26   c0.045,0.228,0.093,0.454,0.139,0.683c0.338,1.699,0.683,3.397,1.036,5.091c0.032,0.151,0.061,0.305,0.093,0.456   c0.04,0.188,0.076,0.377,0.116,0.564c0.062,0.295,0.128,0.588,0.191,0.883c0.415,1.959,0.836,3.914,1.266,5.863   c0.039,0.177,0.076,0.355,0.115,0.531c0.013,0.057,0.025,0.113,0.038,0.17c0.006,0.027,0.013,0.055,0.019,0.082   C503.427,267.602,503.962,269.969,504.503,272.327z"
   id="path451" />
	<path
   fill="#393D84"
   d="M861.744,113.966c-0.111,0.246-0.23,0.484-0.343,0.729c-0.718,1.567-1.445,3.124-2.19,4.662   c-0.329,0.681-0.67,1.348-1.005,2.023c-0.55,1.108-1.1,2.215-1.663,3.308c-0.382,0.741-0.773,1.472-1.161,2.207   c-0.534,1.009-1.07,2.015-1.615,3.011c-0.41,0.748-0.825,1.489-1.241,2.229c-0.543,0.966-1.091,1.927-1.645,2.88   c-0.426,0.733-0.854,1.463-1.285,2.189c-0.566,0.95-1.139,1.891-1.715,2.828c-0.431,0.7-0.86,1.4-1.296,2.092   c-0.608,0.966-1.227,1.919-1.845,2.87c-0.416,0.639-0.828,1.283-1.249,1.916c-0.712,1.07-1.436,2.123-2.16,3.173   c-0.339,0.492-0.673,0.993-1.015,1.481c-1.055,1.502-2.121,2.985-3.2,4.446c-0.347,0.469-0.701,0.924-1.05,1.389   c-0.756,1.007-1.514,2.012-2.28,2.999c-0.461,0.592-0.928,1.171-1.392,1.755c-0.667,0.839-1.334,1.677-2.008,2.5   c-0.504,0.615-1.012,1.22-1.52,1.826c-0.647,0.774-1.297,1.544-1.951,2.304c-0.525,0.61-1.053,1.213-1.582,1.814   c-0.649,0.737-1.303,1.467-1.958,2.191c-0.536,0.591-1.072,1.181-1.612,1.763c-0.664,0.717-1.334,1.423-2.004,2.126   c-0.536,0.562-1.07,1.126-1.609,1.679c-0.705,0.723-1.415,1.429-2.125,2.136c-0.51,0.507-1.017,1.021-1.528,1.52   c-0.879,0.856-1.765,1.692-2.651,2.524c-0.593,0.557-1.186,1.11-1.782,1.655c-0.956,0.875-1.913,1.745-2.877,2.593   c-0.543,0.478-1.091,0.938-1.637,1.408c-0.707,0.608-1.414,1.217-2.124,1.81c-0.594,0.495-1.189,0.976-1.785,1.46   c-0.669,0.544-1.338,1.086-2.009,1.617c-0.616,0.486-1.232,0.963-1.851,1.438c-0.656,0.504-1.313,1.003-1.971,1.495   c-0.627,0.468-1.254,0.931-1.882,1.387c-0.441,0.32-0.882,0.641-1.324,0.956l-4.967,6.41l-10.952,14.132l-1.518,1.96l1.014,1.553   c40.039-2.9,83.567-15.764,112.783-46.097v0c-0.004-0.012-0.008-0.024-0.012-0.036c-1.782-5.512-3.698-10.987-5.737-16.417   c-0.015-0.041-0.03-0.081-0.046-0.122c-2.026-5.394-4.174-10.745-6.429-16.05c-0.049-0.114-0.099-0.228-0.147-0.342   c-1.095-2.57-2.215-5.128-3.359-7.676c-0.027-0.061-0.054-0.122-0.082-0.183c-1.162-2.583-2.35-5.153-3.56-7.712   c-0.087-0.184-0.176-0.367-0.264-0.551c-1.098-2.313-2.215-4.614-3.35-6.906c-0.152-0.307-0.303-0.615-0.455-0.922   c-0.336-0.674-0.685-1.34-1.022-2.013c-0.896-1.777-1.787-3.556-2.703-5.32c-0.018-0.034-0.034-0.068-0.052-0.102   c0,0,0,0-0.001,0.001c0.048,0.093,0.094,0.187,0.141,0.279C861.84,114.147,861.791,114.057,861.744,113.966z"
   id="path453" />
	<path
   fill="#393D84"
   d="M788.282,242.928l13.558,20.753l45.834,70.16h-34.723h-8.608c0.547,1.744,1.085,3.494,1.615,5.25   c0.207,0.687,0.418,1.37,0.622,2.059c0.306,1.029,0.604,2.063,0.904,3.096c0.23,0.795,0.464,1.588,0.691,2.385   c0.285,1.001,0.565,2.006,0.847,3.01c0.231,0.83,0.464,1.66,0.692,2.492c0.271,0.988,0.539,1.979,0.806,2.971   c0.229,0.854,0.459,1.708,0.685,2.564c0.26,0.981,0.517,1.963,0.771,2.946c0.225,0.867,0.447,1.735,0.669,2.604   c0.248,0.976,0.495,1.952,0.739,2.93c0.221,0.884,0.438,1.769,0.655,2.653c0.236,0.965,0.473,1.929,0.705,2.895   c0.219,0.907,0.433,1.814,0.647,2.723c0.225,0.95,0.451,1.899,0.672,2.851c0.214,0.92,0.423,1.841,0.633,2.762   c0.216,0.942,0.433,1.885,0.645,2.828c0.211,0.939,0.416,1.88,0.624,2.821c0.193,0.878,0.392,1.757,0.583,2.636v0.001   c0.048-0.028,0.096-0.058,0.144-0.086c0.602-0.349,1.194-0.711,1.793-1.064c1.229-0.725,2.462-1.446,3.683-2.188   c0.111-0.067,0.222-0.135,0.333-0.202c1.761-1.071,3.512-2.161,5.253-3.266c0.173-0.109,0.347-0.22,0.52-0.33   c1.659-1.057,3.308-2.13,4.947-3.218c0.247-0.163,0.494-0.326,0.741-0.49c1.547-1.031,3.082-2.079,4.611-3.138   c0.324-0.225,0.65-0.446,0.975-0.673c1.439-1.004,2.867-2.024,4.291-3.053c0.391-0.282,0.783-0.561,1.173-0.844   c1.358-0.992,2.706-2,4.05-3.014c0.428-0.323,0.86-0.641,1.287-0.966c1.362-1.039,2.712-2.096,4.059-3.157   c0.381-0.301,0.768-0.595,1.146-0.897c1.715-1.364,3.416-2.747,5.102-4.149c0.401-0.323,0.793-0.66,1.19-0.989   c0.457-0.379,0.918-0.752,1.369-1.138c0.155-0.133,0.308-0.27,0.462-0.402c0.372-0.322,0.738-0.65,1.105-0.977   c0.331-0.294,0.668-0.582,0.996-0.88c0.13-0.118,0.259-0.237,0.389-0.356c0.742-0.679,1.477-1.365,2.2-2.063   c0.06-0.059,0.12-0.116,0.181-0.175c0.803-0.776,1.596-1.563,2.375-2.362C848.765,310.235,817.938,266.984,788.282,242.928z"
   id="path455" />
	<polygon
   fill="#393D84"
   points="861.746,113.961 861.744,113.964 861.746,113.964  "
   id="polygon457" />
	<path
   fill="#256CAA"
   d="M810.587,41.119c-0.157,8.322-0.446,16.664-0.942,24.99c-1.343,22.59-4.251,45.07-10.522,66.738h1.15   h43.578h0.003h1.061l-2.486,3.208l-0.005,0.007l-49.818,64.29c0.442-0.314,0.883-0.635,1.324-0.956   c0.628-0.456,1.255-0.918,1.882-1.387c0.658-0.492,1.314-0.991,1.971-1.495c0.618-0.475,1.234-0.951,1.851-1.438   c0.671-0.53,1.34-1.073,2.009-1.617c0.596-0.484,1.191-0.965,1.785-1.46c0.71-0.593,1.417-1.202,2.124-1.81   c0.546-0.469,1.094-0.93,1.637-1.408c0.964-0.848,1.921-1.717,2.877-2.593c0.597-0.545,1.189-1.099,1.782-1.655   c0.887-0.832,1.772-1.667,2.651-2.524c0.512-0.499,1.019-1.013,1.528-1.52c0.71-0.707,1.42-1.414,2.125-2.136   c0.539-0.553,1.073-1.117,1.609-1.679c0.67-0.703,1.34-1.409,2.004-2.126c0.54-0.582,1.076-1.171,1.612-1.763   c0.655-0.724,1.309-1.454,1.958-2.191c0.529-0.601,1.057-1.204,1.582-1.814c0.654-0.76,1.304-1.53,1.951-2.304   c0.508-0.606,1.016-1.211,1.52-1.826c0.674-0.824,1.341-1.662,2.008-2.5c0.464-0.584,0.931-1.163,1.392-1.755   c0.767-0.986,1.524-1.991,2.28-2.999c0.349-0.465,0.703-0.92,1.05-1.389c1.079-1.461,2.146-2.943,3.2-4.446   c0.342-0.488,0.676-0.989,1.015-1.481c0.725-1.05,1.448-2.103,2.16-3.173c0.421-0.632,0.833-1.276,1.249-1.916   c0.618-0.951,1.236-1.903,1.845-2.87c0.436-0.692,0.865-1.393,1.296-2.092c0.576-0.937,1.148-1.878,1.715-2.828   c0.432-0.726,0.859-1.456,1.285-2.189c0.554-0.953,1.102-1.914,1.645-2.88c0.416-0.74,0.831-1.481,1.241-2.229   c0.545-0.996,1.081-2.002,1.615-3.011c0.388-0.734,0.779-1.465,1.161-2.207c0.563-1.093,1.113-2.2,1.663-3.308   c0.335-0.675,0.676-1.342,1.005-2.023c0.745-1.538,1.473-3.095,2.19-4.662c0.112-0.245,0.23-0.484,0.342-0.73   c-1.599-3.079-3.236-6.131-4.893-9.169c-0.354-0.649-0.708-1.297-1.064-1.944c-1.676-3.044-3.371-6.073-5.101-9.071   c-0.667-1.06-1.339-2.122-2.014-3.186c-0.004-0.005-0.007-0.011-0.011-0.017c-0.159-0.25-0.319-0.501-0.479-0.752   c-0.011-0.017-0.022-0.034-0.033-0.051c-0.524-0.824-1.051-1.648-1.58-2.473c-0.01-0.015-0.019-0.03-0.028-0.044   c-0.163-0.253-0.326-0.506-0.489-0.76c-0.011-0.017-0.021-0.034-0.032-0.051c-0.506-0.785-1.015-1.569-1.525-2.354   c-0.049-0.075-0.098-0.15-0.146-0.226c-0.014-0.021-0.027-0.043-0.042-0.065c-0.124-0.191-0.248-0.381-0.372-0.572   c-0.008-0.011-0.016-0.022-0.023-0.034c-0.043-0.066-0.088-0.131-0.131-0.197c-1.27-1.942-2.563-3.88-3.869-5.813   c-0.396-0.584-0.796-1.166-1.195-1.749c-0.526-0.771-1.045-1.544-1.579-2.312c-0.021-0.031-0.042-0.061-0.063-0.092   c-0.756-1.087-1.52-2.169-2.289-3.249c-0.011-0.015-0.021-0.029-0.031-0.044c-0.025-0.036-0.052-0.072-0.077-0.108   c-0.01-0.013-0.02-0.027-0.029-0.04c-7.251-10.143-15.144-19.892-24.03-28.444c-0.005-0.005-0.01-0.01-0.015-0.015   C810.596,41.127,810.592,41.123,810.587,41.119L810.587,41.119C810.587,41.119,810.587,41.119,810.587,41.119z"
   id="path459" />
	<path
   fill="#256CAA"
   d="M817.341,382.859c-0.212-0.943-0.429-1.886-0.645-2.828c-0.21-0.921-0.419-1.842-0.633-2.762   c-0.221-0.951-0.447-1.9-0.672-2.851c-0.215-0.908-0.429-1.815-0.647-2.723c-0.232-0.966-0.469-1.93-0.705-2.895   c-0.217-0.885-0.435-1.77-0.655-2.653c-0.244-0.978-0.491-1.954-0.739-2.93c-0.222-0.869-0.444-1.737-0.669-2.604   c-0.254-0.983-0.511-1.965-0.771-2.946c-0.226-0.856-0.455-1.711-0.685-2.564c-0.267-0.991-0.534-1.982-0.806-2.971   c-0.229-0.832-0.461-1.662-0.692-2.492c-0.281-1.004-0.562-2.009-0.847-3.01c-0.228-0.797-0.461-1.59-0.691-2.385   c-0.3-1.033-0.599-2.066-0.904-3.096c-0.204-0.688-0.415-1.372-0.622-2.059c-0.53-1.756-1.068-3.506-1.616-5.25h-16.866h-19.308   c0.58,25.89-0.907,52.678-3.217,79.648c0.001,0,0.001,0,0.002-0.001c1.538-0.569,3.07-1.153,4.601-1.744   c2.399-0.926,4.787-1.883,7.167-2.861c0.512-0.211,1.022-0.424,1.533-0.637c2.392-0.996,4.776-2.01,7.146-3.059   c0.106-0.047,0.212-0.094,0.317-0.141c2.195-0.975,4.38-1.971,6.555-2.989c0.013-0.007,0.025-0.012,0.037-0.019   c2.006-0.941,4-1.907,5.987-2.887c0.617-0.304,1.231-0.614,1.847-0.922c1.214-0.607,2.423-1.226,3.629-1.848   c1.747-0.899,3.483-1.818,5.214-2.749c0.741-0.397,1.485-0.789,2.224-1.192c2.441-1.336,4.871-2.694,7.278-4.091   c0.02-0.012,0.04-0.022,0.06-0.034v-0.001c-0.191-0.879-0.389-1.758-0.582-2.636C817.757,384.739,817.552,383.799,817.341,382.859z   "
   id="path461" />
	
		<line
   fill="none"
   stroke="#BFBDBC"
   stroke-width="0"
   stroke-linecap="round"
   stroke-linejoin="round"
   x1="861.746"
   y1="113.959"
   x2="861.746"
   y2="113.96"
   id="line463" />
	<path
   fill="#BFBDBC"
   d="M861.746,113.961c0,0.001,0,0.002,0,0.003h-0.002h-0.001c0,0,0.001,0.001,0.001,0.001   c0.047,0.092,0.096,0.181,0.143,0.273C861.84,114.147,861.794,114.053,861.746,113.961   C861.746,113.96,861.746,113.96,861.746,113.961L861.746,113.961z"
   id="path465" />
</g>
</svg>
